<svg viewBox="0 0 20 20" xmlns="http://www.w3.org/2000/svg">
<path fill-rule="evenodd" clip-rule="evenodd" d="M10.6142 0.997298C10.4339 1.10206 10.2804 1.50234 10.3285 1.74255C10.3506 1.85287 10.6348 2.2585 10.9601 2.64407C11.2854 3.02957 11.5519 3.36167 11.5523 3.382C11.5527 3.40234 11.3437 3.57648 11.0879 3.76898C10.8322 3.96149 10.5631 4.19445 10.4899 4.28676C10.2999 4.52655 10.3177 4.89523 10.5297 5.10715C10.6839 5.26145 10.7618 5.27989 11.2594 5.27989H11.8164L11.8635 5.57463C11.9329 6.00818 12.2975 6.64044 12.6901 7.00771C13.104 7.39476 13.6529 7.65882 14.2604 7.76289C15.6989 8.00929 17.1959 6.99723 17.5287 5.55324C17.6365 5.0857 17.6253 1.81875 17.5154 1.66881C17.4419 1.56869 16.9355 1.49678 14.4449 1.23321C11.3291 0.903508 10.8285 0.87262 10.6142 0.997298ZM14.2791 2.01843L16.8294 2.28221V2.65526V3.02837H14.5906H12.3517L11.8599 2.44791C11.2001 1.66909 11.1968 1.66262 11.49 1.71342C11.6213 1.73615 12.8765 1.87342 14.2791 2.01843ZM3.81412 3.94777C2.59526 4.45126 1.52624 4.8813 1.43858 4.90353C1.16519 4.97277 1 5.25815 1 5.66131C1 5.99714 1.99057 11.077 2.10827 11.3449C2.13719 11.4107 3.03144 12.4168 4.09553 13.5807C6.23645 15.9224 6.39706 16.0532 7.1395 16.0599C7.72927 16.0651 7.9627 15.9485 8.7845 15.2379L9.5479 14.5778L9.56654 16.6599C9.57906 18.0529 9.611 18.773 9.66313 18.8358C9.72659 18.9123 10.5856 18.9297 14.3028 18.9297C18.7952 18.9297 18.8659 18.9275 18.9402 18.7888C18.9921 18.6917 19.0093 17.3272 18.9954 14.4089L18.9752 10.1699L18.8129 9.84371C18.5508 9.31664 18.2013 8.9647 17.69 8.71288L17.2198 8.48126L14.7305 8.46029C13.1217 8.44671 12.1102 8.46648 11.871 8.51616C11.0829 8.67974 10.6128 8.98693 9.12578 10.3098C8.35189 10.9984 7.616 11.6583 7.49042 11.7763L7.26205 11.991L7.05402 11.7917C6.85647 11.6023 6.85112 11.5824 6.94821 11.3947C7.00435 11.286 7.05043 11.1243 7.0505 11.0353C7.05071 10.8057 6.00464 5.56745 5.91064 5.32724C5.77289 4.97523 5.55874 4.89643 4.63514 4.85773L3.79562 4.82255L4.94807 4.35269C5.95869 3.94073 6.10679 3.89746 6.15111 4.00089C6.1789 4.06583 6.45764 5.43032 6.77057 7.03304C7.08343 8.63584 7.36843 10.0013 7.40382 10.0675C7.56507 10.3689 8.10566 10.2191 8.10566 9.87298C8.10566 9.60111 6.91901 3.61841 6.82347 3.40874C6.73089 3.20547 6.43365 3.02739 6.19206 3.03041C6.10306 3.03147 5.03299 3.44434 3.81412 3.94777ZM16.8294 4.15413V4.50593H14.1477H11.4661L11.914 4.15554L12.362 3.80515L14.5957 3.80374L16.8294 3.80233V4.15413ZM16.7591 5.37164C16.7591 5.56836 16.385 6.19956 16.1419 6.41296C14.9273 7.47962 13.1092 6.9726 12.6465 5.4382L12.5988 5.27989H14.679C16.3418 5.27989 16.7591 5.29832 16.7591 5.37164ZM5.72125 8.32295L6.2565 10.979H4.54762H2.83875L2.72836 10.4689C2.47193 9.28456 1.77388 5.81638 1.77388 5.72667C1.77388 5.64576 2.06381 5.63239 3.47995 5.64801L5.18601 5.66687L5.72125 8.32295ZM15.481 9.27963C15.4681 9.31235 14.3178 10.7564 12.9248 12.4885L10.3921 15.6378L10.357 14.5573C10.3376 13.9631 10.2962 13.4373 10.2649 13.3889C10.2336 13.3405 10.111 13.3009 9.99253 13.3009C9.81812 13.3009 9.59665 13.4584 8.83008 14.1276C8.30926 14.5824 7.78372 15.0256 7.66222 15.1127C7.40733 15.2953 7.06141 15.3167 6.77324 15.1677C6.66335 15.1108 5.88771 14.3193 5.04959 13.4087L3.52567 11.753H4.71267H5.8996L6.47938 12.351C6.89003 12.7747 7.10847 12.9491 7.22814 12.9491C7.34915 12.9491 7.91247 12.4891 9.21126 11.3296C11.0036 9.72944 11.3164 9.50126 11.9619 9.32347C12.338 9.2199 15.5201 9.18021 15.481 9.27963ZM17.0022 9.29807C17.1553 9.34056 17.3812 9.44378 17.5043 9.52744L17.728 9.67949L14.3935 13.9L11.0589 18.1206L10.7079 18.1418L10.357 18.1631V17.5709V16.9787L13.4701 13.1012C15.1823 10.9686 16.6149 9.22313 16.6536 9.22229C16.6922 9.22151 16.8491 9.25557 17.0022 9.29807ZM18.2354 14.4091L18.2365 18.1557H15.1726C12.5656 18.1557 12.1172 18.141 12.165 18.0572C12.196 18.003 13.5499 16.2785 15.1736 14.2252C17.0826 11.811 18.145 10.5218 18.1801 10.5771C18.2099 10.624 18.2348 12.3484 18.2354 14.4091Z" />
</svg>
