<svg width="16" height="16" viewBox="0 0 16 16" fill="none" xmlns="http://www.w3.org/2000/svg">
<g clip-path="url(#clip0_2677_49273)">
<path d="M16 8C16 12.4183 12.4183 16 8 16C3.58172 16 0 12.4183 0 8C0 3.58172 3.58172 0 8 0C12.4183 0 16 3.58172 16 8Z" fill="#32407B"/>
<path fill-rule="evenodd" clip-rule="evenodd" d="M8 3.88672C8.27614 3.88672 8.5 4.11058 8.5 4.38672V11.6089C8.5 11.8851 8.27614 12.1089 8 12.1089C7.72386 12.1089 7.5 11.8851 7.5 11.6089V4.38672C7.5 4.11058 7.72386 3.88672 8 3.88672Z" fill="white"/>
<path fill-rule="evenodd" clip-rule="evenodd" d="M3.89062 8C3.89062 7.72386 4.11448 7.5 4.39062 7.5H11.6128C11.889 7.5 12.1128 7.72386 12.1128 8C12.1128 8.27614 11.889 8.5 11.6128 8.5H4.39062C4.11448 8.5 3.89062 8.27614 3.89062 8Z" fill="white"/>
</g>
<defs>
<clipPath id="clip0_2677_49273">
<rect width="16" height="16" fill="white"/>
</clipPath>
</defs>
</svg>
