<svg viewBox="0 0 20 20" xmlns="http://www.w3.org/2000/svg">
<path fill-rule="evenodd" clip-rule="evenodd" d="M1.97205 3.01575C1.84944 3.04644 1.78427 3.09783 1.7415 3.1975C1.71231 3.2655 1.70577 3.33964 1.67914 3.90362C1.67318 4.03022 1.66809 4.70839 1.66785 5.41069L1.6674 6.68759H1.50475C1.12092 6.68759 0.938947 6.76502 0.874363 6.95582C0.838569 7.06152 0.834679 7.22773 0.827809 8.93706L0.820294 10.8029L0.544284 10.8134C0.294152 10.8229 0.260092 10.8292 0.18128 10.8806C0.0838369 10.9442 0 11.0912 0 11.1984C0 11.2437 0.111205 11.4835 0.324632 11.8984C0.503177 12.2455 0.657067 12.5394 0.666605 12.5515C0.67612 12.5635 0.813958 12.8151 0.972895 13.1105C1.13181 13.4058 1.28674 13.6919 1.31714 13.7462C1.34755 13.8004 1.45533 13.9977 1.55666 14.1846C1.658 14.3715 1.80813 14.6479 1.89028 14.7989C1.97245 14.9499 2.07089 15.1345 2.10904 15.209L2.1784 15.3445L1.97294 15.4489C1.61111 15.6328 1.37392 15.9258 1.27625 16.3095C1.18506 16.6676 1.36622 16.9686 1.67307 16.9686C1.79186 16.9686 1.95044 16.8765 2.01771 16.7684C2.04301 16.7278 2.0746 16.6354 2.08792 16.563C2.11853 16.3966 2.20528 16.2709 2.33381 16.2068C2.46875 16.1395 2.55793 16.1427 2.63398 16.2177C2.71077 16.2935 2.81613 16.4993 2.92282 16.7822C2.96831 16.9028 3.03978 17.0661 3.08167 17.1451C3.28823 17.5346 3.70334 17.7808 4.15656 17.7826C4.52835 17.7841 4.7713 17.6839 5.0374 17.4195C5.25193 17.2063 5.34358 17.0396 5.39395 16.7707C5.45407 16.4498 5.49013 16.3508 5.57863 16.2635C5.67706 16.1664 5.7845 16.1407 5.92677 16.1799C6.13003 16.236 6.20589 16.348 6.25831 16.6692C6.30953 16.983 6.35355 17.0896 6.52454 17.3139C6.64575 17.4729 6.87527 17.6504 7.04755 17.7184C7.15404 17.7604 7.21289 17.7667 7.5033 17.7675C7.81871 17.7683 7.84363 17.7652 7.96295 17.7102C8.44432 17.4881 8.66755 17.1786 8.7593 16.6063C8.80183 16.3409 8.92166 16.1975 9.1262 16.1673C9.25774 16.1479 9.36732 16.1878 9.44909 16.2851C9.52044 16.37 9.55272 16.4665 9.61154 16.7707C9.66172 17.0301 9.75538 17.2045 9.95534 17.4109C10.2151 17.679 10.467 17.779 10.8835 17.7795C11.3317 17.7799 11.7418 17.5234 11.9382 17.1195C11.9874 17.0184 12.0424 16.8617 12.0605 16.7713C12.132 16.4139 12.1439 16.3739 12.1987 16.3097C12.3215 16.1659 12.5126 16.1208 12.6676 16.1992C12.8344 16.2835 12.8738 16.3542 12.9287 16.6665C12.9917 17.0252 13.131 17.2979 13.3458 17.4832C13.5706 17.6771 13.8415 17.7798 14.1276 17.7795C14.5476 17.779 14.7995 17.678 15.059 17.4061C15.2593 17.1961 15.3499 17.0271 15.3995 16.7707C15.4651 16.4311 15.4939 16.3514 15.5821 16.2644C15.6815 16.1664 15.7885 16.1405 15.9312 16.1799C16.135 16.2362 16.2103 16.3478 16.2633 16.6726C16.3084 16.9489 16.363 17.087 16.5031 17.2791C16.6357 17.4607 16.8673 17.6462 17.052 17.7186C17.1581 17.7603 17.2182 17.7667 17.5077 17.7675C17.8231 17.7683 17.848 17.7652 17.9674 17.7102C18.2571 17.5765 18.47 17.3921 18.5941 17.1674C18.7364 16.9096 18.7877 16.5488 18.7053 16.3853C18.6825 16.3399 18.6259 16.273 18.5796 16.2366C18.4686 16.1493 18.2586 16.1306 18.1495 16.1983C18.0353 16.269 17.9608 16.3853 17.9266 16.5467C17.8762 16.7838 17.7528 16.9257 17.5667 16.9604C17.3871 16.9938 17.1722 16.8477 17.1235 16.6591C17.102 16.5758 17.0521 16.3091 17.0141 16.074C17.0042 16.0134 17.0569 15.888 17.3366 15.3068C17.5205 14.9247 17.748 14.4493 17.8422 14.2503C17.9365 14.0514 18.1286 13.647 18.2693 13.3516C18.41 13.0562 18.5828 12.6912 18.6533 12.5405C18.7238 12.3898 18.8485 12.1235 18.9303 11.9486C19.466 10.8049 19.8883 9.87684 19.9625 9.68041C20.0284 9.50572 20.0129 9.4377 19.8723 9.28609L19.7598 9.16467L17.511 9.16577L15.2623 9.16686L14.4193 9.9878L13.5763 10.8087H13.0465H12.5166L12.5151 9.14823C12.5132 7.01685 12.4932 6.1543 12.4435 6.06032C12.3569 5.89644 12.1711 5.87849 10.5483 5.87733L9.41375 5.87651L9.29778 5.99228L9.18182 6.10807V6.80336V7.49867L8.64269 7.50174C8.34619 7.50343 7.97851 7.50786 7.82567 7.51158C7.67282 7.51531 7.4027 7.51991 7.2254 7.52184L6.90304 7.52533L6.79913 7.63829L6.69521 7.75125L6.68176 9.08819C6.67436 9.82351 6.66269 10.5065 6.65584 10.606L6.64337 10.7868H6.24519H5.84702L5.84531 10.1785C5.84437 9.84396 5.83975 9.55048 5.83504 9.52637C5.8303 9.50225 5.82439 9.13234 5.8219 8.70433C5.81938 8.27632 5.81009 7.69116 5.80122 7.40395C5.78581 6.90483 5.78292 6.87947 5.73544 6.82964C5.65949 6.74991 5.50413 6.70719 5.2412 6.69367L5.0022 6.68139L5.00202 5.91176C5.00187 5.11857 4.98482 4.89691 4.91676 4.80238C4.82935 4.68094 4.58666 4.6141 4.43691 4.67024C4.40563 4.68197 4.33495 4.73254 4.27984 4.78266L4.17962 4.87374V5.78065V6.68759H3.34592H2.51222V4.96958V3.25158L2.41537 3.16357C2.24788 3.01133 2.13714 2.97441 1.97205 3.01575ZM11.6718 8.73721V10.7649H10.8381H10.0044V8.73721V6.70951H10.8381H11.6718V8.73721ZM5.0022 9.14275V10.7649H3.34592H1.68963V9.14275V7.52059H3.34592H5.0022V9.14275ZM9.13736 9.56473L9.13738 10.7759L8.32589 10.7699L7.51442 10.7639V9.55872V8.35359H8.32589H9.13736V9.56473ZM18.8848 10.0001C18.8999 10.0149 18.82 10.203 18.5973 10.6772C18.5152 10.852 18.3903 11.1184 18.3197 11.2691C18.2491 11.4198 18.0889 11.7601 17.9636 12.0254C17.8383 12.2906 17.6734 12.6408 17.5972 12.8036C17.521 12.9663 17.3162 13.4004 17.1421 13.7681C16.968 14.1358 16.7251 14.6488 16.6024 14.908C16.4796 15.1672 16.3709 15.3882 16.3608 15.3992C16.3498 15.411 16.2808 15.4021 16.1914 15.3773C15.8687 15.2878 15.4376 15.3523 15.1733 15.5295C14.934 15.69 14.7069 15.9803 14.6392 16.2123C14.6216 16.2726 14.5968 16.3948 14.5842 16.484C14.5425 16.7777 14.4582 16.8936 14.2453 16.9498C14.1507 16.9747 14.1363 16.9723 14.0145 16.9122C13.8532 16.8325 13.7958 16.7329 13.7499 16.4533C13.7324 16.3467 13.7065 16.2242 13.6923 16.181C13.5704 15.8095 13.2035 15.46 12.8525 15.3813C12.6543 15.3369 12.3577 15.3366 12.1608 15.3808C11.9106 15.4369 11.637 15.6337 11.4735 15.8751C11.3595 16.0434 11.3032 16.1955 11.2625 16.4446C11.2166 16.726 11.1579 16.8321 11.006 16.9083C10.9398 16.9414 10.8643 16.9686 10.8381 16.9686C10.8119 16.9686 10.7362 16.9414 10.6698 16.9083C10.524 16.8355 10.4653 16.7371 10.4271 16.5018C10.333 15.9218 10.01 15.5242 9.51681 15.3814C9.36279 15.3368 9.0111 15.3355 8.84174 15.379C8.55679 15.4522 8.29194 15.639 8.13594 15.8768C8.04461 16.016 7.95748 16.2715 7.90606 16.5511C7.8696 16.7492 7.83098 16.8193 7.71553 16.8968C7.56909 16.9951 7.3877 16.9828 7.24561 16.8649C7.15513 16.7898 7.12543 16.7175 7.0807 16.4632C6.98979 15.9466 6.76798 15.6406 6.33612 15.4363C6.17007 15.3577 6.16814 15.3574 5.86925 15.3574C5.40607 15.3574 5.22877 15.4275 4.93551 15.7267C4.73066 15.9357 4.62595 16.1586 4.57979 16.484C4.53813 16.7777 4.45383 16.8936 4.24084 16.9498C4.14634 16.9747 4.13191 16.9723 4.0101 16.9122C3.84756 16.8319 3.79111 16.7326 3.74398 16.4439C3.70314 16.1937 3.62486 15.9962 3.50065 15.8298C3.3774 15.6647 3.26726 15.4886 3.06824 15.1381C2.97922 14.9814 2.86379 14.7792 2.81173 14.6888C2.17916 13.5899 1.1345 11.6774 1.15606 11.6576C1.16218 11.652 3.92339 11.6411 7.2921 11.6334C10.6608 11.6258 13.5221 11.6135 13.6505 11.6062C13.7878 11.5983 13.9149 11.5787 13.9593 11.5585C14.0007 11.5397 14.3909 11.1756 14.8263 10.7494L15.618 9.97463L17.2446 9.98066C18.1393 9.98399 18.8774 9.99271 18.8848 10.0001Z" />
</svg>
