<svg viewBox="0 0 20 20" xmlns="http://www.w3.org/2000/svg">
<path d="M1 9.37451C1 9.00996 1.14816 8.66035 1.41188 8.40258C1.6756 8.14481 2.03329 8 2.40625 8H10.8438C11.2167 8 11.5744 8.14481 11.8381 8.40258C12.1018 8.66035 12.25 9.00996 12.25 9.37451V10.749H13.2063C13.4169 10.7492 13.6249 10.7957 13.8148 10.8849C14.0046 10.9742 14.1715 11.1041 14.3031 11.2649L15.6916 12.9601C15.8913 13.204 16.0001 13.5072 16 13.8197V15.7889C16 16.1534 15.8518 16.503 15.5881 16.7608C15.3244 17.0186 14.9667 17.1634 14.5938 17.1634H14.125C14.125 17.6494 13.9275 18.1156 13.5758 18.4593C13.2242 18.803 12.7473 18.996 12.25 18.996C11.7527 18.996 11.2758 18.803 10.9242 18.4593C10.5725 18.1156 10.375 17.6494 10.375 17.1634H5.6875C5.68804 17.4077 5.63861 17.6496 5.54211 17.8749C5.44562 18.1003 5.30401 18.3045 5.12561 18.4755C4.94721 18.6466 4.73561 18.7811 4.50327 18.8711C4.27092 18.9611 4.02252 19.0048 3.77265 18.9996C3.52278 18.9944 3.2765 18.9404 3.04828 18.8409C2.82006 18.7413 2.6145 18.5981 2.4437 18.4198C2.2729 18.2415 2.1403 18.0316 2.05369 17.8024C1.96708 17.5733 1.92821 17.3295 1.93937 17.0855C1.66473 16.991 1.42687 16.8155 1.2586 16.5833C1.09034 16.351 0.999984 16.0734 1 15.7889L1 9.37451ZM2.21312 16.2067C2.38263 15.9355 2.62142 15.712 2.90603 15.5583C3.19064 15.4046 3.51128 15.3259 3.83643 15.3299C4.16158 15.334 4.48006 15.4207 4.76055 15.5815C5.04104 15.7423 5.27391 15.9716 5.43625 16.247H10.6262C10.7912 15.9687 11.0278 15.7375 11.3125 15.5763V9.37451C11.3125 9.25299 11.2631 9.13645 11.1752 9.05053C11.0873 8.96461 10.9681 8.91634 10.8438 8.91634H2.40625C2.28193 8.91634 2.1627 8.96461 2.07479 9.05053C1.98689 9.13645 1.9375 9.25299 1.9375 9.37451V15.7889C1.93743 15.8771 1.96339 15.9634 2.01228 16.0375C2.06118 16.1116 2.13091 16.1704 2.21312 16.2067ZM12.25 15.3307C12.5791 15.3307 12.9024 15.4154 13.1875 15.5762C13.4725 15.7371 13.7092 15.9684 13.8738 16.247H14.5938C14.7181 16.247 14.8373 16.1988 14.9252 16.1128C15.0131 16.0269 15.0625 15.9104 15.0625 15.7889V13.8187C15.0623 13.7148 15.0259 13.6139 14.9594 13.5328L13.5719 11.8376C13.528 11.784 13.4724 11.7406 13.4091 11.7108C13.3458 11.681 13.2765 11.6654 13.2063 11.6653H12.25V15.3307ZM3.8125 16.247C3.56386 16.247 3.3254 16.3436 3.14959 16.5154C2.97377 16.6873 2.875 16.9203 2.875 17.1634C2.875 17.4064 2.97377 17.6395 3.14959 17.8113C3.3254 17.9832 3.56386 18.0797 3.8125 18.0797C4.06114 18.0797 4.2996 17.9832 4.47541 17.8113C4.65123 17.6395 4.75 17.4064 4.75 17.1634C4.75 16.9203 4.65123 16.6873 4.47541 16.5154C4.2996 16.3436 4.06114 16.247 3.8125 16.247ZM12.25 16.247C12.0014 16.247 11.7629 16.3436 11.5871 16.5154C11.4113 16.6873 11.3125 16.9203 11.3125 17.1634C11.3125 17.4064 11.4113 17.6395 11.5871 17.8113C11.7629 17.9832 12.0014 18.0797 12.25 18.0797C12.4986 18.0797 12.7371 17.9832 12.9129 17.8113C13.0887 17.6395 13.1875 17.4064 13.1875 17.1634C13.1875 16.9203 13.0887 16.6873 12.9129 16.5154C12.7371 16.3436 12.4986 16.247 12.25 16.247Z" />
<path fill-rule="evenodd" clip-rule="evenodd" d="M11.0723 1.38676L11.3687 5.2638L11.368 5.26444L10.0709 5.26071L9.92247 4.77102L9.88735 4.67105C9.69415 4.20286 9.28937 3.90848 8.83401 3.89284L8.74154 3.89493C8.2276 3.94575 7.84753 4.37515 7.82939 4.90323L7.81222 5.40304L7.71676 5.42083C7.45112 5.47135 7.20925 5.61854 7.03176 5.83772C6.85427 6.05689 6.75197 6.3347 6.74201 6.62451C6.73206 6.91432 6.81506 7.19849 6.9771 7.42932C7.13913 7.66016 7.37032 7.82361 7.63188 7.89223L7.72528 7.91651L7.70811 8.41631C7.70079 8.62945 7.75325 8.82962 7.84933 8.99824H9.62197C9.68957 8.90507 9.74533 8.80184 9.78721 8.69117L9.96886 8.21282L11.2705 8.29901L11.0973 9.48468L11.5 11.4982H11.7298L12.3333 7.37884L9.36961 7.18421L8.93889 8.3223C8.91777 8.37813 8.88124 8.42572 8.83425 8.45862C8.78725 8.49151 8.73207 8.50812 8.67617 8.50619C8.64744 8.5052 8.6251 8.47875 8.62616 8.44785L8.67088 7.14572L7.85209 6.93259C7.79471 6.91788 7.74392 6.88227 7.70829 6.8318C7.67267 6.78133 7.65441 6.71909 7.65659 6.65559C7.65877 6.5921 7.68126 6.53125 7.72026 6.48334C7.75927 6.43543 7.81238 6.4034 7.87063 6.39267L8.70214 6.23555L8.74626 4.93341C8.74677 4.9197 8.7519 4.90663 8.76068 4.89663C8.76947 4.88664 8.78132 4.8804 8.79402 4.87908L8.82951 4.87899C8.90528 4.88225 8.99781 4.94995 9.04021 5.05148L9.05799 5.10411L9.40309 6.24514L12.3646 6.25402L11.9901 1.35441C11.9915 1.32944 12.0226 1.29825 12.0593 1.29951C12.1425 1.30232 12.2236 1.32816 12.2947 1.37454C12.3657 1.42092 12.4244 1.48627 12.465 1.5643L12.4952 1.63052L14.3868 6.25962L17.4021 6.26837C17.4903 6.2685 17.5775 6.28733 17.6587 6.32376C17.7399 6.3602 17.8136 6.41353 17.8755 6.48072C17.9374 6.54791 17.9863 6.62763 18.0195 6.71533C18.0527 6.80302 18.0694 6.89698 18.0688 6.99182L18.0678 7.0201C18.0543 7.41139 17.7432 7.72399 17.3728 7.71127L14.3725 7.5134L12.4147 11.4982H13.4503L14.9046 8.53839L17.3242 8.69788C17.5336 8.70663 17.7429 8.67077 17.9398 8.59234C18.1368 8.51392 18.3176 8.39447 18.4718 8.24088C18.6261 8.08729 18.7508 7.90257 18.8387 7.69734C18.9266 7.49211 18.9761 7.27042 18.9842 7.04499L18.9851 7.00157C18.9873 6.7767 18.9482 6.55379 18.8702 6.34561C18.7921 6.13742 18.6766 5.94804 18.5302 5.7883C18.3838 5.62856 18.2095 5.50159 18.0171 5.41465C17.8247 5.32771 17.6181 5.28252 17.4091 5.28165L14.9879 5.27552L13.3254 1.20868L13.2759 1.10097C13.028 0.621694 12.5833 0.329887 12.0931 0.313051C11.5492 0.294367 11.0928 0.753408 11.0727 1.33805L11.0723 1.38676Z" />
</svg>
