<svg viewBox="0 0 20 20" xmlns="http://www.w3.org/2000/svg">
<path fill-rule="evenodd" clip-rule="evenodd" d="M9.1354 2.82567C8.51462 3.04147 3.89488 4.82411 3.73625 4.90902C3.44641 5.06427 3.13912 5.45873 3.05449 5.78415C3.00322 5.98121 2.98894 6.87639 3.00824 8.67593C3.03387 11.0675 3.04794 11.3291 3.17843 11.8498C3.50104 13.1366 4.08965 14.1685 5.02519 15.087C5.52943 15.5821 5.83658 15.7984 7.25032 16.6535C8.15243 17.1992 9.01251 17.686 9.16163 17.7354C9.62074 17.8875 9.90477 17.7694 11.7133 16.6742C13.1556 15.8006 13.4662 15.5824 13.9715 15.087C14.9075 14.1693 15.4962 13.1379 15.8191 11.8498C15.9496 11.3291 15.9637 11.0675 15.9893 8.67593C16.0202 5.79209 16.006 5.65175 15.6391 5.23116C15.3607 4.9121 15.3722 4.91716 12.3078 3.75267C9.8802 2.83025 9.46845 2.70989 9.1354 2.82567ZM12.16 4.89547C13.567 5.42821 14.7554 5.89383 14.8008 5.93017C14.8642 5.98094 14.8833 6.57786 14.8829 8.5024C14.8825 10.7482 14.8691 11.0663 14.754 11.5638C14.4536 12.861 13.7442 13.9645 12.7362 14.7022C12.1801 15.1091 9.62107 16.6535 9.50281 16.6535C9.38435 16.6535 6.81612 15.1072 6.2614 14.7018C5.25418 13.9657 4.54401 12.8613 4.24359 11.5638C4.12844 11.0662 4.11502 10.7482 4.11463 8.49809C4.1143 6.60263 4.13385 5.97403 4.1945 5.93222C4.36073 5.81768 9.30705 3.93419 9.45114 3.93057C9.53393 3.92851 10.7529 4.36273 12.16 4.89547ZM11.5365 8.26983C11.46 8.32532 10.8553 8.98807 10.1926 9.74264C9.14432 10.9364 8.97373 11.1035 8.87991 11.0287C8.82058 10.9814 8.50444 10.7082 8.1774 10.4216C7.47773 9.80833 7.32776 9.71699 7.11244 9.77289C6.74833 9.86759 6.55726 10.3604 6.77344 10.6473C6.94581 10.8761 8.7777 12.4187 8.9214 12.4561C9.19427 12.527 9.42339 12.3406 10.267 11.3613C10.7259 10.8286 11.3784 10.0737 11.7172 9.6836C12.2476 9.07278 12.3331 8.94093 12.3331 8.73388C12.3331 8.30295 11.866 8.03083 11.5365 8.26983Z" />
</svg>
