<svg viewBox="0 0 17 17" xmlns="http://www.w3.org/2000/svg">
<path fill-rule="evenodd" clip-rule="evenodd" d="M9.34695 0.172116C9.10315 0.300775 8.95663 0.406427 8.79655 0.569073C8.67658 0.690989 7.61506 1.82758 6.43761 3.09482C3.65579 6.08886 3.13041 6.65371 2.38827 7.44881C1.27147 8.64531 1.25452 8.66557 0.859249 9.27881C0.225791 10.2616 -0.038909 11.1746 0.00458192 12.2268C0.0539203 13.421 0.501289 14.5618 1.25266 15.4097C1.90954 16.151 3.08263 16.7853 4.10143 16.9501C5.12292 17.1153 6.14956 16.8684 7.06177 16.238C7.53558 15.9106 7.66958 15.7827 8.75675 14.62C9.29917 14.0399 9.90854 13.3899 10.1109 13.1755C10.3132 12.9612 10.6353 12.6183 10.8265 12.4135C11.0178 12.2087 11.3401 11.8657 11.5427 11.6511C11.8697 11.3049 13.5471 9.51268 15.317 7.61847C16.2188 6.65337 16.4828 6.30562 16.7398 5.74408C16.9219 5.34628 16.9719 5.12081 16.9948 4.5955C17.0305 3.77255 16.8825 2.99327 16.5696 2.3578C16.2757 1.76082 15.9332 1.39375 15.4144 1.11976C14.7604 0.774345 14.244 0.630268 13.6495 0.627354C12.8907 0.62366 12.1643 0.915711 11.3994 1.5319C11.2658 1.63948 6.95429 6.19207 5.13767 8.14368C4.83725 8.4664 4.67306 8.74828 4.50112 9.23636C4.30872 9.78251 4.26021 10.31 4.36477 10.7193C4.42065 10.9381 4.59638 11.3111 4.75293 11.5433C4.93832 11.8182 5.61119 12.2462 6.01782 12.3478C6.34761 12.4303 6.71072 12.4012 7.05446 12.2649C7.62266 12.0396 7.63748 12.0256 9.99965 9.47372C11.1939 8.18357 12.4616 6.81521 12.8167 6.43292C13.1718 6.05064 13.5185 5.64924 13.5872 5.54091C13.8985 5.04969 13.906 4.58052 13.606 4.35251C13.483 4.25903 13.2019 4.26316 12.9476 4.36224C12.5423 4.52014 12.3793 4.66771 11.2407 5.9073C10.6416 6.55958 10.0371 7.21525 9.89718 7.36434C9.75731 7.51343 9.06487 8.26262 8.35849 9.02919C7.02243 10.479 6.878 10.6246 6.67719 10.7232C6.4415 10.8391 6.12357 10.7827 5.95134 10.5946C5.77325 10.4001 5.71242 10.0172 5.82216 9.78139C5.85313 9.71481 6.1655 9.35695 6.51629 8.98612C6.86711 8.61532 8.07359 7.33635 9.19741 6.14392C10.3212 4.95149 11.4859 3.71667 11.7856 3.39985C12.4744 2.67167 12.7759 2.44861 13.3156 2.26794C13.6817 2.14538 14.2391 2.19024 14.5891 2.37047C15.0929 2.62986 15.4298 3.10594 15.5605 3.74317C15.6478 4.1691 15.5656 4.64114 15.3133 5.16185C15.1166 5.56805 15.1766 5.49981 12.5549 8.29616C12.1967 8.67821 11.59 9.32605 11.2067 9.73581C7.38667 13.8195 6.50117 14.7465 6.20458 14.9723C5.91908 15.1896 5.55138 15.3655 5.24256 15.4323C4.905 15.5055 4.23247 15.4805 3.8667 15.3812C3.29713 15.2267 2.72899 14.847 2.29956 14.3337C1.86701 13.8167 1.67544 13.4317 1.53457 12.7966C1.45736 12.4485 1.45078 12.3616 1.4633 11.854C1.4763 11.3288 1.48374 11.2754 1.5863 10.973C1.64634 10.796 1.78591 10.4717 1.89649 10.2524L2.09746 9.85363L3.81181 7.9994C4.75469 6.97961 6.56616 5.02133 7.83726 3.64772C9.64916 1.6897 10.1677 1.11 10.2377 0.964132C10.4109 0.603533 10.3245 0.236225 10.0264 0.0653455C9.83831 -0.042475 9.7177 -0.0234996 9.34695 0.172116Z" />
</svg>
