<svg viewBox="0 0 15 15" xmlns="http://www.w3.org/2000/svg">
<path fill-rule="evenodd" clip-rule="evenodd" d="M14.4 7.2C14.4 11.1765 11.1765 14.4 7.2 14.4C3.22355 14.4 0 11.1765 0 7.2C0 3.22355 3.22355 0 7.2 0C11.1765 0 14.4 3.22355 14.4 7.2ZM8.00227 4.00114C8.00227 4.44296 7.6441 4.80114 7.20227 4.80114C6.76045 4.80114 6.40227 4.44296 6.40227 4.00114C6.40227 3.55931 6.76045 3.20114 7.20227 3.20114C7.6441 3.20114 8.00227 3.55931 8.00227 4.00114ZM8.2 6.40057C8.2 5.84828 7.75229 5.40057 7.2 5.40057C6.64772 5.40057 6.2 5.84828 6.2 6.40057V11.2006C6.2 11.7529 6.64772 12.2006 7.2 12.2006C7.75229 12.2006 8.2 11.7529 8.2 11.2006V6.40057Z" />
</svg>
