<svg viewBox="0 0 20 20" xmlns="http://www.w3.org/2000/svg">
<path fill-rule="evenodd" clip-rule="evenodd" d="M10.0499 1.70649C9.92612 1.74598 8.17024 2.29617 6.14796 2.92914C4.12569 3.56215 2.42742 4.10238 2.37403 4.12965C2.25396 4.19101 2.14916 4.30216 2.06464 4.45779C2.00862 4.56098 2 4.65614 2 5.17202C2 5.72068 2.00596 5.77816 2.07638 5.90747C2.19524 6.12575 2.3722 6.24985 2.64919 6.30927L2.7444 6.32968V10.9239V15.5181L2.86212 15.6337C2.99376 15.763 3.13007 15.7839 3.29543 15.6998C3.51902 15.5863 3.50611 15.8826 3.50611 10.8722V6.32838H10.5H17.4939V10.8722C17.4939 15.8826 17.481 15.5863 17.7046 15.6998C17.8699 15.7839 18.0062 15.763 18.1379 15.6337L18.2556 15.5181V10.9239V6.32968L18.3508 6.30927C18.6278 6.24985 18.8048 6.12575 18.9236 5.90747C18.994 5.77816 19 5.72068 19 5.17202C19 4.59982 18.9966 4.57105 18.9134 4.42681C18.7425 4.13051 18.84 4.16727 15.2953 3.06267C13.4863 2.49891 11.7412 1.95293 11.4175 1.8494C10.7038 1.62109 10.413 1.59072 10.0499 1.70649ZM14.1145 3.47471C16.0398 4.07507 17.7592 4.61145 17.9353 4.66668L18.2556 4.76708V5.17362V5.58015H10.5H2.7444V5.1778V4.77545L6.5443 3.58269C8.63426 2.92666 10.4049 2.3884 10.4791 2.38653C10.5677 2.38429 11.8135 2.75718 14.1145 3.47471ZM7.60896 7.82132C7.53279 7.85594 7.42844 7.92832 7.37709 7.98212C7.17056 8.19847 7.17617 8.12623 7.17617 10.5764V12.8201L6.33656 12.8308L5.49694 12.8414L5.33172 12.9368C5.24084 12.9893 5.12398 13.0953 5.07205 13.1724L4.9776 13.3126L4.96718 15.6618C4.95997 17.2927 4.96839 18.0503 4.99474 18.1392C5.04522 18.3097 5.22131 18.5011 5.39848 18.5781C5.53597 18.6379 5.76289 18.6406 10.5 18.6406C15.2371 18.6406 15.464 18.6379 15.6015 18.5781C15.7787 18.5011 15.9548 18.3097 16.0053 18.1392C16.0316 18.0503 16.04 17.2927 16.0328 15.6618L16.0224 13.3126L15.928 13.1724C15.876 13.0953 15.7592 12.9893 15.6683 12.9368L15.5031 12.8414L14.3006 12.8313L13.0982 12.8212L13.0888 10.5499L13.0794 8.27863L12.9754 8.11126C12.8973 7.98559 12.8246 7.9206 12.6835 7.85037L12.4957 7.75684L10.1216 7.75758C7.88456 7.7583 7.73946 7.76197 7.60896 7.82132ZM8.63637 9.31283C8.64721 10.0183 8.6569 10.1357 8.71285 10.2396C8.80263 10.4064 8.90228 10.5065 9.06314 10.5915C9.19512 10.6613 9.2455 10.6648 10.1365 10.6648H11.0713L11.2298 10.5732C11.317 10.5229 11.4339 10.4157 11.4895 10.3351L11.5906 10.1886L11.6015 9.34684L11.6123 8.50507H11.9737H12.335V10.6648V12.8244H10.1365H7.93788V10.6648V8.50507H8.28093H8.62398L8.63637 9.31283ZM10.8462 9.2193V9.93353H10.1191H9.39206V9.2193V8.50507H10.1191H10.8462V9.2193ZM6.41446 14.2852C6.41446 15.1234 6.4405 15.2794 6.61365 15.4781C6.83735 15.7348 6.89835 15.7478 7.88595 15.7484C8.36202 15.7487 8.80606 15.7341 8.87271 15.7159C9.04209 15.6696 9.25069 15.4906 9.32651 15.3266C9.38295 15.2046 9.39064 15.0926 9.39129 14.3804L9.39206 13.5727H9.7556H10.1191V15.7494V17.9261H7.92057H5.722V15.7494V13.5727H6.06823H6.41446V14.2852ZM8.63035 14.2869V15.0011H7.90326H7.17617V14.2869V13.5727H7.90326H8.63035V14.2869ZM11.6087 14.3804C11.6094 15.0926 11.617 15.2046 11.6735 15.3266C11.7493 15.4906 11.9579 15.6696 12.1273 15.7159C12.1939 15.7341 12.638 15.7487 13.1141 15.7484C14.1016 15.7478 14.1627 15.7348 14.3864 15.4781C14.5595 15.2794 14.5855 15.1234 14.5855 14.2852V13.5727H14.9318H15.278V15.7494V17.9261H13.0794H10.8809V15.7494V13.5727H11.2444H11.6079L11.6087 14.3804ZM13.8238 14.2869V15.0011H13.0967H12.3697V14.2869V13.5727H13.0967H13.8238V14.2869Z" />
</svg>
