<svg width="3" height="14" viewBox="0 0 3 14" fill="none" xmlns="http://www.w3.org/2000/svg">
<path d="M1.5 0C1.58125 0 1.65156 0.0494795 1.71094 0.148438L2.91094 2.14844C2.97031 2.2474 3 2.36458 3 2.5C3 2.63542 2.97031 2.7526 2.91094 2.85156C2.85156 2.95052 2.78125 3 2.7 3H2.1L2.1 11H2.7C2.78125 11 2.85156 11.0495 2.91094 11.1484C2.97031 11.2474 3 11.3646 3 11.5C3 11.6354 2.97031 11.7526 2.91094 11.8516L1.71094 13.8516C1.65156 13.9505 1.58125 14 1.5 14C1.41875 14 1.34844 13.9505 1.28906 13.8516L0.0890625 11.8516C0.0296875 11.7526 0 11.6354 0 11.5C0 11.3646 0.0296875 11.2474 0.0890625 11.1484C0.148438 11.0495 0.21875 11 0.3 11H0.9L0.9 3H0.3C0.21875 3 0.148438 2.95052 0.0890625 2.85156C0.0296875 2.7526 0 2.63542 0 2.5C0 2.36458 0.0296875 2.2474 0.0890625 2.14844L1.28906 0.148438C1.34844 0.0494795 1.41875 0 1.5 0Z" fill="white"/>
</svg>
