<svg viewBox="0 0 20 20" xmlns="http://www.w3.org/2000/svg">
<path d="M7.8932 8.03578L7.3082 3.14161L7.30653 3.07995C7.30653 2.33911 7.90653 1.73828 8.6482 1.73828C9.31653 1.73828 9.9357 2.08828 10.2957 2.68411L10.3682 2.81828L12.8224 7.89328L16.1199 7.79578C16.4046 7.78779 16.688 7.83601 16.9541 7.93768C17.2201 8.03935 17.4635 8.19248 17.6703 8.3883C17.8771 8.58411 18.0433 8.81879 18.1593 9.07889C18.2754 9.33898 18.339 9.61941 18.3465 9.90411L18.3474 9.95911C18.3468 10.2448 18.2898 10.5275 18.1797 10.7911C18.0695 11.0547 17.9084 11.2939 17.7055 11.495C17.5026 11.6961 17.262 11.8551 16.9975 11.9629C16.7329 12.0708 16.4497 12.1253 16.164 12.1233L12.8615 12.0266L10.3682 17.1833C10.2118 17.5067 9.96743 17.7796 9.66305 17.9705C9.35867 18.1613 9.00664 18.2625 8.64736 18.2624C7.90653 18.2624 7.30653 17.6624 7.30653 16.9033L7.31236 16.8049L7.90153 11.8816L6.12486 11.8291L5.89986 12.4424C5.78579 12.7546 5.57857 13.0241 5.30626 13.2146C5.03395 13.4051 4.70969 13.5073 4.37736 13.5074C3.64736 13.5074 3.0557 12.9158 3.0557 12.1849V11.5516L2.92736 11.5249C2.56797 11.4495 2.24548 11.2526 2.01403 10.9675C1.78258 10.6824 1.65625 10.3263 1.65625 9.95911C1.65625 9.59188 1.78258 9.23582 2.01403 8.9507C2.24548 8.66559 2.56797 8.46877 2.92736 8.39328L3.05653 8.36661V7.73328C3.05653 7.06411 3.55403 6.50411 4.25153 6.41745L4.37736 6.41078C4.9982 6.41078 5.5632 6.76578 5.8482 7.34995L5.9007 7.47495L6.1257 8.08828L7.89236 8.03661L7.8932 8.03578ZM8.6482 2.98828C8.5982 2.98828 8.55736 3.02911 8.55653 3.06078L9.2957 9.24578L5.26236 9.36328L4.73903 7.93411L4.71236 7.86828C4.64986 7.74161 4.5207 7.65995 4.41736 7.65911L4.36903 7.66078C4.3518 7.663 4.33596 7.67141 4.32446 7.68444C4.31296 7.69747 4.30659 7.71424 4.30653 7.73161L4.30736 9.38162L3.18236 9.61661C3.10354 9.63274 3.0327 9.67559 2.98183 9.73792C2.93096 9.80025 2.90317 9.87824 2.90317 9.9587C2.90317 10.0392 2.93096 10.1171 2.98183 10.1795C3.0327 10.2418 3.10354 10.2847 3.18236 10.3008L4.30736 10.5349V12.1849C4.30736 12.2241 4.33903 12.2566 4.3782 12.2566C4.45441 12.2566 4.52878 12.2332 4.59124 12.1895C4.6537 12.1459 4.70122 12.084 4.72736 12.0124L5.2607 10.5533L9.3057 10.6708L8.5582 16.8966V16.9216C8.5582 16.9716 8.5982 17.0116 8.6482 17.0116C8.77244 17.0116 8.89417 16.9766 8.99941 16.9105C9.10465 16.8445 9.18914 16.7501 9.2432 16.6383L12.089 10.7524L16.184 10.8724C16.689 10.8724 17.0982 10.4633 17.0982 9.96745V9.93161C17.0946 9.81155 17.0675 9.69336 17.0182 9.5838C16.9689 9.47425 16.8986 9.37548 16.8111 9.29313C16.7237 9.21078 16.6208 9.14648 16.5085 9.1039C16.3962 9.06131 16.2766 9.04128 16.1565 9.04495L12.0499 9.16495L9.25736 3.38828L9.2132 3.30578C9.15422 3.20879 9.07125 3.12862 8.97229 3.07301C8.87333 3.0174 8.76171 2.98822 8.6482 2.98828Z" />
</svg>
