<svg viewBox="0 0 20 20" xmlns="http://www.w3.org/2000/svg">
<path d="M18.8343 5.08946C18.8317 5.08452 18.8295 5.07941 18.8267 5.07452C18.8231 5.06823 18.8189 5.06249 18.8151 5.05639C18.7011 4.86621 18.5398 4.7088 18.3469 4.59945L10.6326 0.235873C10.4394 0.127324 10.2216 0.0703125 10 0.0703125C9.77843 0.0703125 9.56058 0.127324 9.36737 0.235873L1.65299 4.5995C1.45427 4.71206 1.2891 4.87558 1.17447 5.07322C1.17347 5.07497 1.17228 5.07654 1.1713 5.07829C1.16956 5.08139 1.16829 5.08462 1.16661 5.08776C1.05761 5.28051 1.00021 5.49818 1 5.71967V14.42C1.00022 14.6478 1.06077 14.8715 1.17549 15.0683C1.29022 15.2651 1.45501 15.4279 1.65308 15.5402L9.36737 19.9038C9.5382 19.9992 9.72861 20.0542 9.92398 20.0645C9.94729 20.068 9.97079 20.0699 9.99435 20.0703C9.99623 20.0703 9.99821 20.0703 10.0001 20.0703C10.0251 20.0701 10.0501 20.0682 10.0749 20.0646C10.2707 20.0544 10.4615 19.9994 10.6326 19.9038L18.347 15.5402C18.5451 15.4279 18.7098 15.265 18.8245 15.0682C18.9392 14.8715 18.9998 14.6478 19 14.42V5.71967C18.9998 5.49884 18.9427 5.2818 18.8343 5.08946ZM9.9096 1.19601C9.93721 1.1805 9.96834 1.17236 10 1.17236C10.0317 1.17236 10.0628 1.1805 10.0904 1.19601L17.3341 5.29342L14.5093 6.90992L7.1165 2.77593L9.9096 1.19601ZM10.0943 9.43639L2.6757 5.28786L5.99334 3.41126L13.3926 7.54893L10.0943 9.43639ZM2.1954 14.5801C2.16709 14.564 2.14353 14.5408 2.12713 14.5126C2.11073 14.4845 2.10207 14.4526 2.10204 14.42V6.23049L9.54308 10.3915L9.4575 18.6879L2.1954 14.5801ZM17.8047 14.58L10.5598 18.6782L10.6452 10.3916L13.9614 8.49394V11.9549C13.9614 12.1012 14.0194 12.2414 14.1227 12.3448C14.2261 12.4483 14.3662 12.5064 14.5124 12.5064C14.6585 12.5064 14.7987 12.4483 14.902 12.3448C15.0053 12.2414 15.0634 12.1012 15.0634 11.9549V7.86329L17.898 6.24123V14.42C17.8979 14.4525 17.8893 14.4845 17.8729 14.5126C17.8565 14.5407 17.833 14.564 17.8047 14.58Z" />
</svg>
