<svg viewBox="0 0 130 85" fill="none" xmlns="http://www.w3.org/2000/svg">
<path d="M38.5545 0.787223C37.6408 0.838781 37.4258 1.0622 38.1066 1.21687C38.3216 1.26843 40.9374 1.31998 43.9293 1.31998C46.9213 1.33717 49.4295 1.37154 49.4833 1.40591C49.555 1.44028 52.1528 1.56058 55.2522 1.6637C58.3517 1.76681 62.4724 1.93867 64.3894 2.0246C66.3064 2.11053 69.6388 2.28239 71.8066 2.3855C75.6227 2.55736 76.3752 2.5058 75.8019 2.05897C75.2106 1.59496 42.8723 0.477879 38.5545 0.787223Z" fill="#B6C0EB" stroke="#B6C0EB" stroke-width="0.2"/>
<path d="M36.6346 3.22721C36.5271 4.18961 36.4375 6.04568 36.4375 7.3518C36.4375 9.37972 36.4733 9.75781 36.7062 9.75781C36.9212 9.75781 36.975 9.43128 36.975 7.90175C36.975 6.88778 37.1004 5.15202 37.2437 4.03494C37.4945 1.95546 37.4587 1.50863 37.0646 1.50863C36.9212 1.50863 36.7779 2.07576 36.6346 3.22721Z" fill="#B6C0EB" stroke="#B6C0EB" stroke-width="0.2"/>
<path d="M76.5247 2.31692C76.3456 2.60908 76.3097 17.7498 76.4889 17.8013C76.7935 17.8873 76.883 16.3577 76.9547 9.3631C77.0084 4.43077 76.9726 2.50597 76.8293 2.36848C76.7039 2.24818 76.5785 2.23099 76.5247 2.31692Z" fill="#B6C0EB" stroke="#B6C0EB" stroke-width="0.2"/>
<path d="M77.4688 2.95288C77.4688 3.09037 78.1316 3.7778 78.9558 4.48242C84.9755 9.74127 87.8779 12.3535 89.7591 14.1752C90.9416 15.3438 92.0165 16.2891 92.124 16.2891C92.6973 16.2891 92.1599 15.5157 90.4041 13.7971C88.3796 11.8036 82.2344 6.28693 81.3207 5.61668C81.034 5.39326 80.1561 4.65427 79.4037 3.96684C78.06 2.74665 77.4688 2.45449 77.4688 2.95288Z" fill="#B6C0EB" stroke="#B6C0EB" stroke-width="0.2"/>
<path d="M78.3672 6.56349C78.3672 6.70098 78.6001 6.83847 78.9047 6.87284C79.5138 6.95877 79.8184 6.71816 79.4242 6.47756C79.0301 6.23696 78.3672 6.28852 78.3672 6.56349Z" fill="#B6C0EB" stroke="#B6C0EB" stroke-width="0.2"/>
<path d="M78.3103 7.28676C78.0774 7.51017 78.3999 7.69922 79.009 7.69922C79.3494 7.69922 79.6182 7.63048 79.6182 7.54455C79.6182 7.25239 78.5611 7.04616 78.3103 7.28676Z" fill="#B6C0EB" stroke="#B6C0EB" stroke-width="0.2"/>
<path d="M78.1875 8.5593C78.1875 8.76553 78.9937 8.97176 79.2445 8.81709C79.6387 8.59368 79.4237 8.38745 78.8146 8.38745C78.4742 8.38745 78.1875 8.45619 78.1875 8.5593Z" fill="#B6C0EB" stroke="#B6C0EB" stroke-width="0.2"/>
<path d="M78.1838 10.104C77.9688 10.2243 78.0047 10.293 78.363 10.4133C78.9005 10.6196 79.3304 10.3618 78.9005 10.104C78.56 9.89777 78.5242 9.89777 78.1838 10.104Z" fill="#B6C0EB" stroke="#B6C0EB" stroke-width="0.2"/>
<path d="M36.4228 11.9402C36.4228 12.7823 36.3511 14.1056 36.2615 14.9134C36.1719 15.7211 35.9749 19.7769 35.8315 23.9359C35.5449 31.5492 35.3299 36.155 35.0074 40.6061C34.9178 41.9294 34.7566 46.14 34.6491 49.9724C34.5595 53.8048 34.3445 59.459 34.2012 62.5352C33.8787 69.358 33.8787 69.0486 34.1833 69.0486C34.6133 69.0486 34.7207 67.7425 35.097 57.1045C35.2403 53.1346 35.3299 49.3022 35.2761 48.5975C35.2224 47.8929 35.312 45.676 35.4553 43.6996C35.6165 41.706 35.8136 38.2689 35.9211 36.0519C36.0107 33.8349 36.1361 31.7726 36.1719 31.4977C36.2078 31.2055 36.3332 28.0777 36.4407 24.5374C36.5482 20.9971 36.7094 17.4741 36.799 16.7179C36.9065 15.9617 36.9782 14.2431 36.9782 12.9026C36.9782 10.8403 36.9423 10.4451 36.7094 10.4451C36.4944 10.4451 36.4407 10.7372 36.4228 11.9402Z" fill="#B6C0EB" stroke="#B6C0EB" stroke-width="0.2"/>
<path d="M78.0609 11.8586C78.0967 11.9789 78.3117 12.082 78.5446 12.082C78.7775 12.082 78.9925 11.9789 79.0462 11.8586C79.0821 11.7211 78.9208 11.6524 78.5446 11.6524C78.1684 11.6524 78.0071 11.7211 78.0609 11.8586Z" fill="#B6C0EB" stroke="#B6C0EB" stroke-width="0.2"/>
<path d="M78.2761 12.664C78.1506 12.8874 78.5806 13.0765 78.9927 12.9906C79.1539 12.9734 79.2793 12.8531 79.2793 12.7671C79.2793 12.5265 78.4194 12.4406 78.2761 12.664Z" fill="#B6C0EB" stroke="#B6C0EB" stroke-width="0.2"/>
<path d="M40.7758 13.9161C40.8653 14.1568 42.1911 14.3458 43.929 14.3802C45.201 14.3974 45.2189 14.4833 44.0902 15.4285L43.4273 15.9784L42.5315 15.1879C41.779 14.5177 41.5641 14.4145 41.152 14.5005C40.8653 14.5692 40.6145 14.638 40.5787 14.6723C40.5428 14.7067 40.4712 15.4972 40.4174 16.4425C40.3637 17.6627 40.3995 18.2985 40.5787 18.6938L40.8295 19.2266L42.8898 19.1922C44.0185 19.175 45.0577 19.1234 45.1831 19.0719C45.3085 19.0375 45.3981 18.6422 45.3981 18.0236C45.416 17.4908 45.5414 16.5112 45.6847 15.8581C46.0789 14.0536 46.0789 14.0021 45.5772 13.8646C45.3264 13.7958 44.144 13.7443 42.9257 13.7271C41.2237 13.7099 40.722 13.7615 40.7758 13.9161ZM42.424 15.9269C42.7286 16.2362 42.7465 16.3393 42.5315 16.7002C42.4061 16.9409 42.0478 17.3705 41.7253 17.6627L41.1341 18.2126L41.0087 16.7518C40.937 15.9441 40.937 15.2051 41.0087 15.102C41.1341 14.8957 41.8328 15.291 42.424 15.9269ZM44.8068 16.7174L44.5739 17.7142L44.1798 17.1127C43.9648 16.7862 43.7856 16.4596 43.7856 16.4081C43.7856 16.305 44.9143 15.6004 44.986 15.6691C45.0218 15.7035 44.9323 16.1675 44.8068 16.7174ZM44.341 18.3845C44.4844 18.6422 44.4485 18.6938 44.0006 18.6938C43.714 18.6938 43.1048 18.6422 42.6569 18.5907L41.8328 18.4704L42.4778 17.7142L43.1407 16.9409L43.6423 17.5252C43.929 17.8345 44.2335 18.2298 44.341 18.3845Z" fill="#B6C0EB" stroke="#B6C0EB" stroke-width="0.2"/>
<path d="M78.1304 14.1618C77.9154 14.368 78.2021 14.5742 78.7395 14.5742C79.0799 14.5742 79.2591 14.4883 79.2591 14.3164C79.2591 14.0586 78.3633 13.9383 78.1304 14.1618Z" fill="#B6C0EB" stroke="#B6C0EB" stroke-width="0.2"/>
<path d="M48.7118 15.0888C48.6401 15.2091 48.6939 15.3638 48.8193 15.4497C48.9626 15.5356 51.2559 15.6044 53.9074 15.6044C56.5769 15.6216 59.318 15.6388 60.0347 15.6731C61.468 15.7247 61.9338 15.5872 61.5575 15.2263C61.2351 14.917 48.9089 14.7967 48.7118 15.0888Z" fill="#B6C0EB" stroke="#B6C0EB" stroke-width="0.2"/>
<path d="M78.2405 15.468C78.2764 15.5883 78.4914 15.6914 78.7243 15.6914C78.9572 15.6914 79.1722 15.5883 79.2259 15.468C79.2618 15.3305 79.1005 15.2618 78.7243 15.2618C78.348 15.2618 78.1868 15.3305 78.2405 15.468Z" fill="#B6C0EB" stroke="#B6C0EB" stroke-width="0.2"/>
<path d="M92.4125 17.0628L92.5379 17.5096L87.4318 17.4753C84.619 17.4753 82.2541 17.5096 82.1824 17.544C82.0929 17.5956 81.2687 17.6471 80.3371 17.6643C78.0797 17.7159 76.7539 17.8533 76.7539 18.0424C76.7539 18.2314 77.0047 18.3002 78.2588 18.4377L79.298 18.558L78.7963 19.0564C78.4022 19.4516 78.3484 19.6063 78.5276 19.7782C78.7067 19.95 78.9038 19.8125 79.513 19.1595C80.1938 18.4033 80.3192 18.3345 80.9462 18.3861L81.6091 18.4377L80.9821 19.1595C80.2475 19.9672 80.2117 20.0703 80.6775 20.0703C80.8567 20.0703 81.3404 19.6579 81.7883 19.1251C82.487 18.283 82.6483 18.1799 83.2395 18.1799C83.6157 18.1799 83.9203 18.2314 83.9203 18.3002C83.9024 18.3861 83.6695 18.7126 83.3828 19.0392C83.0782 19.3657 82.8453 19.7266 82.8453 19.8469C82.8453 20.2937 83.3112 20.0188 84.0995 19.1251C84.7265 18.4033 85.0132 18.2142 85.4073 18.2314C85.6761 18.2486 85.8911 18.283 85.8911 18.3345C85.8911 18.3689 85.694 18.6611 85.4432 18.9704C84.9415 19.6063 84.8698 19.8985 85.2461 19.8985C85.3894 19.8985 85.8015 19.5032 86.1598 19.0392C86.6435 18.4033 86.9302 18.1799 87.2527 18.1799H87.7006L87.1273 18.8501C86.7869 19.2626 86.6077 19.6407 86.6614 19.7953C86.8406 20.225 87.0018 20.1219 87.7543 19.1251C88.256 18.4377 88.5785 18.1799 88.883 18.1799C89.4026 18.1799 89.4026 18.3002 88.9009 18.8157C88.5964 19.1423 88.5605 19.2626 88.7397 19.4344C88.9189 19.5891 89.0443 19.5376 89.4026 19.1251C89.6355 18.8329 89.8326 18.5236 89.8326 18.4033C89.8326 18.2658 90.1909 18.2142 90.9792 18.2314C91.875 18.2658 92.09 18.3174 91.9467 18.472C91.7317 18.7298 91.9108 19.2798 92.1616 19.1251C92.2512 19.0735 92.3408 18.8329 92.3408 18.5923C92.3408 18.3517 92.4125 18.1971 92.5021 18.2658C92.6991 18.3689 93.4158 17.6987 93.4158 17.4065C93.4158 17.1487 92.8245 16.6332 92.5379 16.6332C92.3766 16.6332 92.3408 16.7706 92.4125 17.0628Z" fill="#B6C0EB" stroke="#B6C0EB" stroke-width="0.2"/>
<path d="M49.5601 16.9242C48.6106 16.9757 48.4314 17.0445 48.4852 17.2851C48.5389 17.5428 48.8435 17.5772 51.7638 17.5085C53.6091 17.4741 55.4545 17.5257 56.0636 17.646C56.9236 17.7834 66.4728 18.11 69.196 18.0756C69.8589 18.0584 70.3606 17.7319 70.0023 17.5257C69.8948 17.4569 67.7986 17.3882 65.3441 17.3538C62.9075 17.3194 59.7364 17.2335 58.3031 17.1476C55.1678 16.9413 51.1009 16.8382 49.5601 16.9242Z" fill="#B6C0EB" stroke="#B6C0EB" stroke-width="0.2"/>
<path d="M90.4395 18.7143C90.3858 18.8174 90.4037 18.9721 90.5112 19.0752C90.7441 19.2986 91.0845 19.1096 91.0845 18.7659C91.0845 18.4909 90.6187 18.4393 90.4395 18.7143Z" fill="#B6C0EB" stroke="#B6C0EB" stroke-width="0.2"/>
<path d="M92.7856 19.2112C92.7318 19.2971 92.7318 19.744 92.7856 20.1908C92.8393 20.6376 92.7856 22.2875 92.6243 23.8514C92.481 25.5356 92.4094 27.5979 92.4631 28.9212L92.5527 31.1553L91.3523 33.9051C88.8978 39.5936 87.8229 42.6011 84.9742 51.6924C84.1322 54.3733 83.4155 57.1574 83.0214 59.34C82.5914 61.6601 82.1972 63.3787 82.0539 63.499C81.9823 63.5849 78.5603 60.2337 75.9446 57.5355C72.9168 54.4077 66.9328 48.7192 66.3237 48.4099C65.5175 48.0146 65.5354 48.0146 65.3921 48.3411C65.3383 48.513 65.5175 48.702 65.9654 48.9254C66.3237 49.0973 67.9182 50.5237 69.4948 52.0704C74.3321 56.8137 81.3014 63.8943 81.5881 64.3411C82.3047 65.4582 82.5914 64.7192 83.738 58.9448C84.0426 57.3637 84.9205 54.0812 85.7267 51.4689C86.5329 48.8911 87.3212 46.296 87.5004 45.6773C88.4499 42.4808 92.3914 32.8052 95.0251 27.2026C95.2042 26.8245 95.7238 25.7246 96.1717 24.7622C96.6196 23.7998 96.9958 22.9233 96.9958 22.8374C96.9958 22.4249 97.4258 22.5109 98.7337 23.1296C100.919 24.1951 106.455 26.4292 106.868 26.4292C107.118 26.4292 107.208 26.3433 107.172 26.1371C107.118 25.8621 105.649 25.209 102.227 23.9373C101.6 23.6967 100.274 23.1467 99.307 22.6999C97.8379 22.0469 97.4258 21.9266 97.0675 22.064C96.7092 22.1843 96.333 22.8374 95.1505 25.3981C94.3264 27.151 93.5739 28.7321 93.4664 28.9212C93.0902 29.5399 92.9827 27.7182 93.1977 24.7966C93.5022 20.947 93.4843 19.0393 93.1618 19.0393C93.0185 19.0393 92.8393 19.1081 92.7856 19.2112Z" fill="#B6C0EB" stroke="#B6C0EB" stroke-width="0.2"/>
<path d="M40.9232 22.9409C40.7799 22.9924 40.5649 23.1643 40.4574 23.3018C40.2603 23.5767 39.9199 27.856 40.0811 28.0966C40.1349 28.1825 41.0307 28.1997 42.0877 28.1482C43.6643 28.0794 44.0227 28.1138 44.1481 28.32C44.4168 28.784 44.596 28.32 44.7035 26.8077C44.7751 25.9827 44.8826 24.7969 44.9543 24.1439L45.0976 22.9924H43.9331C43.2881 22.9924 42.4102 22.958 41.9802 22.9065C41.5503 22.8721 41.0665 22.8721 40.9232 22.9409ZM42.876 24.2985C42.2311 24.9172 42.2131 24.9172 41.7473 24.6251C41.4786 24.4532 41.1919 24.1782 41.0844 24.0064C40.9232 23.697 40.9949 23.6799 42.2131 23.6799H43.521L42.876 24.2985ZM44.1302 25.4328C44.0227 26.2062 43.8972 26.8936 43.8614 26.9108C43.7897 26.9967 42.7327 25.8624 42.7148 25.6906C42.7148 25.5187 44.2018 23.8689 44.2914 23.9376C44.3272 23.972 44.2556 24.6423 44.1302 25.4328ZM41.1382 25.9484C40.7261 26.3608 40.6365 26.2062 40.8694 25.4328C40.959 25.0719 40.9949 25.0547 41.2636 25.2953C41.5144 25.5531 41.4965 25.6047 41.1382 25.9484ZM42.6073 26.7561L43.1089 27.2717L42.464 27.392C42.0877 27.4435 41.6398 27.4264 41.4428 27.3576C41.0844 27.2029 41.0844 27.1858 41.4607 26.7217C41.6757 26.464 41.9086 26.2577 41.9802 26.2577C42.0519 26.2577 42.3386 26.4811 42.6073 26.7561Z" fill="#B6C0EB" stroke="#B6C0EB" stroke-width="0.2"/>
<path d="M50.7768 24.0246C48.3582 24.0934 47.9999 24.1449 47.9461 24.4027C47.8924 24.6433 48.0715 24.6949 49.0211 24.7464C51.171 24.8495 53.8225 24.6433 54.0017 24.3683C54.1809 24.0762 54.0734 23.8356 53.7688 23.8871C53.6434 23.9043 52.2997 23.9731 50.7768 24.0246Z" fill="#B6C0EB" stroke="#B6C0EB" stroke-width="0.2"/>
<path d="M56.2209 24.2311C56.1492 24.317 56.185 24.4717 56.2925 24.5748C56.5254 24.7982 65.9672 25.0388 66.4151 24.8498C67.4184 24.3685 66.2717 24.2311 60.3953 24.1451C57.905 24.0936 56.2746 24.1279 56.2209 24.2311Z" fill="#B6C0EB" stroke="#B6C0EB" stroke-width="0.2"/>
<path d="M48.1384 26.0866C47.6905 26.2584 47.583 26.585 47.9592 26.6194C48.0667 26.6194 48.5863 26.6194 49.07 26.6022C49.5716 26.6022 51.0945 26.6709 52.474 26.7568C53.8536 26.86 60.1779 26.9459 66.5201 26.9459C77.646 26.9631 78.7568 26.9287 78.2909 26.4819C78.2193 26.3959 72.8445 26.3272 66.341 26.31C59.7837 26.2928 53.6386 26.1897 52.5099 26.1038C50.127 25.8804 48.6758 25.8804 48.1384 26.0866Z" fill="#B6C0EB" stroke="#B6C0EB" stroke-width="0.2"/>
<path d="M107.389 26.4296C107.389 26.5155 107.55 26.6702 107.747 26.7733C108.249 27.0311 108.195 27.2201 107.425 28.2169C106.26 29.7292 103.197 34.335 101.925 36.4832C101.262 37.6175 100.312 39.233 99.8107 40.0923C98.7895 41.7937 94.3284 50.2834 93.5222 52.0364C93.2355 52.6551 92.3039 54.6143 91.426 56.4188C89.5269 60.3715 89.1148 61.3683 87.3232 66.2147C84.7433 73.1921 83.2205 79.0697 84.2596 78.0729C84.3492 77.9698 84.6896 76.8871 84.9942 75.6669C85.8541 72.161 86.2304 71.0783 86.517 71.1814C86.8037 71.2845 86.9828 71.0611 88.8282 68.5348C89.5448 67.538 90.8348 65.9225 91.6947 64.9257C94.848 61.2995 95.6721 60.1137 95.045 60.1137C94.9555 60.1137 94.5434 60.5606 94.1134 61.0933C93.6834 61.6261 92.4651 63.0697 91.4081 64.2899C90.369 65.4929 88.8461 67.4177 88.022 68.552C87.2158 69.669 86.517 70.5799 86.4812 70.5455C86.4095 70.4768 87.6457 67.0568 87.9145 66.5584C88.022 66.3694 88.3086 65.9397 88.5774 65.6132C88.8282 65.2866 89.5269 64.393 90.1002 63.6368C90.6735 62.8806 91.426 61.9698 91.7664 61.6261C92.1964 61.1964 92.3576 60.9043 92.2681 60.698C92.1606 60.4403 92.0889 60.4574 91.6052 60.9043C91.3185 61.1621 90.566 62.0213 89.9569 62.7947C89.3478 63.5681 88.8282 64.1868 88.7924 64.1524C88.6849 64.0493 90.3152 60.234 91.3543 58.1374C91.9097 57.0031 92.8055 55.147 93.3251 54.0128C95.3854 49.5616 98.2878 44.0278 101.262 38.8893C101.764 38.03 102.391 36.9473 102.659 36.4832C103.322 35.2974 106.475 30.6229 107.855 28.7668C108.482 27.9419 109.002 27.1514 109.002 27.0139C109.002 26.7561 108.124 26.2577 107.658 26.2577C107.515 26.2577 107.389 26.3264 107.389 26.4296Z" fill="#B6C0EB" stroke="#B6C0EB" stroke-width="0.2"/>
<path d="M101.656 26.6572C101.656 26.8978 102.176 27.1212 104.379 27.8086C105.508 28.1523 106.081 28.1523 105.867 27.8086C105.813 27.7227 104.971 27.4305 103.985 27.1384C103 26.8462 102.086 26.5541 101.925 26.5025C101.764 26.4338 101.656 26.4853 101.656 26.6572Z" fill="#B6C0EB" stroke="#B6C0EB" stroke-width="0.2"/>
<path d="M47.8706 28.0788C47.4407 28.4913 47.8527 28.6116 50.3789 28.8006C55.2879 29.1959 61.0389 29.3506 67.614 29.299C73.5801 29.2474 74.1534 29.2131 74.2071 28.9553C74.2788 28.6287 73.6876 28.6116 64.5683 28.6459C60.6626 28.6803 57.5632 28.5428 49.4293 28.0272C48.641 27.9757 47.9423 27.9929 47.8706 28.0788Z" fill="#B6C0EB" stroke="#B6C0EB" stroke-width="0.2"/>
<path d="M102.052 28.6983C102.106 28.8186 102.644 29.0076 103.289 29.1279C104.794 29.4029 104.883 29.4029 104.776 29.1107C104.596 28.6639 101.909 28.2686 102.052 28.6983Z" fill="#B6C0EB" stroke="#B6C0EB" stroke-width="0.2"/>
<path d="M101.943 30.0192C101.8 30.2426 102.283 30.4832 103.143 30.6035C103.627 30.6723 103.806 30.6379 103.806 30.466C103.806 30.3457 103.663 30.1911 103.502 30.1395C102.606 29.9161 102.033 29.8645 101.943 30.0192Z" fill="#B6C0EB" stroke="#B6C0EB" stroke-width="0.2"/>
<path d="M101.389 31.5869C101.209 31.8619 101.353 31.9478 102.177 32.0509C102.643 32.1196 102.912 32.0853 102.912 31.965C102.912 31.7244 102.768 31.6556 102.069 31.5181C101.729 31.4322 101.46 31.4666 101.389 31.5869Z" fill="#B6C0EB" stroke="#B6C0EB" stroke-width="0.2"/>
<path d="M100.223 33.1333C100.223 33.3223 100.742 33.5457 101.566 33.7519C102.337 33.941 102.122 33.3567 101.351 33.1504C100.491 32.9098 100.223 32.9098 100.223 33.1333Z" fill="#B6C0EB" stroke="#B6C0EB" stroke-width="0.2"/>
<path d="M39.707 33.4244C39.4741 33.8369 39.5816 37.6349 39.8324 38.0818C39.9937 38.3567 40.352 38.4599 42.0898 38.6317C43.2185 38.752 44.2039 38.8036 44.2756 38.7348C44.4368 38.5973 44.5085 33.4932 44.3472 33.4072C44.2935 33.3729 43.2544 33.2869 42.054 33.2182C40.0474 33.1151 39.8683 33.1323 39.707 33.4244ZM43.2185 34.0775C43.2723 34.129 43.111 34.3868 42.8244 34.6446L42.3407 35.1086L41.8928 34.6274C41.6599 34.3696 41.4628 34.0775 41.4628 34.0087C41.4628 33.8369 43.0394 33.9056 43.2185 34.0775ZM41.1761 34.7821C41.5344 35.2289 41.7673 35.6758 41.6957 35.7789C41.3732 36.2945 40.4595 37.2225 40.352 37.1537C40.137 37.0334 40.1728 33.9916 40.3878 33.9916C40.4774 33.9916 40.8357 34.3525 41.1761 34.7821ZM43.7919 35.3492C43.7919 35.6242 43.7381 35.9851 43.6844 36.1398C43.5769 36.3804 43.541 36.3804 43.2365 36.1226C42.8244 35.7617 42.8065 35.5726 43.2006 35.1602C43.6127 34.7134 43.7919 34.7821 43.7919 35.3492ZM42.8602 36.7757C43.5948 37.5834 43.8456 37.9615 43.7381 38.0474C43.6844 38.099 43.0752 38.0818 42.3765 38.013C41.4986 37.9443 41.1045 37.824 41.1045 37.6693C41.1045 37.4459 42.1257 36.2257 42.3048 36.2257C42.3407 36.2257 42.5915 36.4663 42.8602 36.7757Z" fill="#B6C0EB" stroke="#B6C0EB" stroke-width="0.2"/>
<path d="M47.1535 33.6133C46.7056 33.6477 46.4727 33.7508 46.4727 33.9227C46.4727 34.1289 47.1176 34.1633 50.5575 34.1633C52.797 34.1633 56.6131 34.1804 59.0318 34.1976C63.242 34.2148 64.4603 34.0945 63.8332 33.7336C63.6182 33.5961 48.4972 33.4758 47.1535 33.6133Z" fill="#B6C0EB" stroke="#B6C0EB" stroke-width="0.2"/>
<path d="M65.926 33.9552C65.711 34.2989 66.356 34.4708 68.4163 34.5739C70.5125 34.677 71.3366 34.5567 70.9246 34.1958C70.6737 33.9724 66.0514 33.749 65.926 33.9552Z" fill="#B6C0EB" stroke="#B6C0EB" stroke-width="0.2"/>
<path d="M99.8672 34.5118C99.8672 34.7352 100.476 35.0273 100.924 35.0273C101.444 35.0273 101.39 34.7008 100.835 34.5118C100.261 34.2884 99.8672 34.2884 99.8672 34.5118Z" fill="#B6C0EB" stroke="#B6C0EB" stroke-width="0.2"/>
<path d="M46.6523 35.5906C46.6523 35.7453 46.8853 35.8828 47.2436 35.9343C47.5481 35.9859 51.1313 36.0374 55.1624 36.0718C68.4919 36.1577 68.9219 36.1577 68.9936 35.9343C69.0294 35.8312 68.9219 35.6937 68.7427 35.6422C68.5636 35.5906 63.5292 35.5047 57.5453 35.4531C47.9781 35.35 46.6523 35.3672 46.6523 35.5906Z" fill="#B6C0EB" stroke="#B6C0EB" stroke-width="0.2"/>
<path d="M98.6473 36.0734C98.7369 36.3484 99.9731 36.6921 100.17 36.5203C100.385 36.314 99.9552 36.0562 99.2385 35.9359C98.7011 35.85 98.5757 35.8844 98.6473 36.0734Z" fill="#B6C0EB" stroke="#B6C0EB" stroke-width="0.2"/>
<path d="M98.25 37.4323C98.25 37.6557 99.0562 37.8448 99.4325 37.7073C99.5758 37.6557 99.6474 37.5354 99.5937 37.4323C99.4504 37.2089 98.25 37.2089 98.25 37.4323Z" fill="#B6C0EB" stroke="#B6C0EB" stroke-width="0.2"/>
<path d="M46.4727 37.8043C46.4727 38.1824 51.3995 38.3714 63.8691 38.423C71.5192 38.4745 74.2424 38.4402 74.332 38.2855C74.4037 38.1824 74.4216 38.0449 74.3678 38.0105C74.3141 37.9589 70.1397 37.8902 65.0694 37.8558C60.0171 37.8215 53.7645 37.7355 51.1846 37.6668C47.046 37.5637 46.4727 37.5809 46.4727 37.8043Z" fill="#B6C0EB" stroke="#B6C0EB" stroke-width="0.2"/>
<path d="M97.5352 38.8735C97.5352 39.1141 97.9114 39.3203 98.3593 39.3203C98.6997 39.3203 98.6818 38.8735 98.3235 38.736C97.8576 38.5641 97.5352 38.6157 97.5352 38.8735Z" fill="#B6C0EB" stroke="#B6C0EB" stroke-width="0.2"/>
<path d="M75.9441 38.9783C72.8088 39.3908 68.0611 40.8344 66.162 41.9514C64.2629 43.0513 63.2775 43.8075 61.5397 45.4745C59.5689 47.365 58.2969 48.9976 58.2969 49.6163C58.2969 50.0631 58.494 50.0803 58.7985 49.6679C60.7514 46.9525 60.8768 46.815 64.1912 44.0481C66.4128 42.1577 69.5123 40.8859 74.2958 39.8376C78.094 39.0127 83.1105 39.5283 85.9771 41.0234C86.7116 41.4187 87.3387 41.6593 87.3924 41.5734C87.4999 41.4187 87.2491 41.1953 86.3354 40.5938C85.3679 39.9579 85.0096 39.8204 82.8776 39.3908C80.6023 38.9096 77.6999 38.7377 75.9441 38.9783Z" fill="#B6C0EB" stroke="#B6C0EB" stroke-width="0.2"/>
<path d="M96.7659 40.2829C96.5867 40.4719 96.9988 40.8672 97.375 40.8672C97.6796 40.8672 98.0021 40.575 97.8587 40.4375C97.7154 40.2829 96.8913 40.1798 96.7659 40.2829Z" fill="#B6C0EB" stroke="#B6C0EB" stroke-width="0.2"/>
<path d="M40.6507 41.6928C40.2207 41.7271 39.8624 41.8646 39.7728 42.0365C39.5937 42.3458 39.4503 46.6079 39.5937 47.0891C39.6832 47.3641 39.952 47.3984 42.084 47.3984C43.8756 47.3984 44.4847 47.3469 44.5564 47.175C44.6818 46.8313 44.5206 42.0193 44.3593 41.8818C44.1981 41.7443 41.6002 41.6068 40.6507 41.6928ZM43.4277 42.552C43.4277 42.6208 43.141 42.9473 42.8006 43.2738L42.1736 43.8582L41.7077 43.4285C41.4569 43.2051 41.1703 42.8786 41.0807 42.7067C40.9194 42.4489 41.0269 42.4146 42.1736 42.4146C42.8544 42.4146 43.4277 42.4833 43.4277 42.552ZM41.6361 44.4769C41.6361 44.5284 41.3136 44.8893 40.9194 45.2502L40.2028 45.9205V44.3909L40.2207 42.8442L40.9194 43.6176C41.3136 44.0472 41.6361 44.4253 41.6361 44.4769ZM43.9293 45.233L43.8756 45.8861L43.2843 45.1815L42.6931 44.4769L43.1948 43.8582L43.6964 43.2223L43.8397 43.8925C43.9114 44.2534 43.9652 44.8549 43.9293 45.233ZM42.8364 45.7142C43.7681 46.5735 43.6427 46.711 41.9227 46.711C41.0807 46.711 40.3461 46.6251 40.2924 46.5391C40.2386 46.436 40.3282 46.3673 40.5074 46.3673C40.7044 46.3673 41.1165 46.0923 41.4569 45.7658C41.7973 45.4393 42.1019 45.1643 42.1556 45.1643C42.2094 45.1643 42.514 45.4049 42.8364 45.7142Z" fill="#B6C0EB" stroke="#B6C0EB" stroke-width="0.2"/>
<path d="M96.0344 41.6922C95.909 41.8813 96.321 42.0703 96.8585 42.0703C97.0556 42.0703 97.181 41.9844 97.1452 41.8469C97.0556 41.5891 96.1777 41.4688 96.0344 41.6922Z" fill="#B6C0EB" stroke="#B6C0EB" stroke-width="0.2"/>
<path d="M46.2969 42.9792C46.2969 43.3573 46.6194 43.4088 50.3817 43.5291C53.1945 43.6322 53.6424 43.615 53.6424 43.3916C53.6424 43.0307 53.1945 42.962 49.5755 42.8245C46.6194 42.7214 46.2969 42.7386 46.2969 42.9792Z" fill="#B6C0EB" stroke="#B6C0EB" stroke-width="0.2"/>
<path d="M95.2031 43.3422C95.2031 43.5828 95.5794 43.7891 96.0273 43.7891C96.3677 43.7891 96.3497 43.3422 95.9914 43.2047C95.5256 43.0329 95.2031 43.0844 95.2031 43.3422Z" fill="#B6C0EB" stroke="#B6C0EB" stroke-width="0.2"/>
<path d="M46.4765 44.3022C46.2974 44.4053 46.2615 44.5084 46.4048 44.6459C46.8886 45.1099 60.0747 45.7802 60.3614 45.3333C60.4331 45.2302 60.4151 45.0584 60.3435 44.9896C60.2539 44.9037 58.2831 44.8006 55.972 44.7662C53.6608 44.7146 51.0809 44.5943 50.2389 44.4912C47.4261 44.1819 46.7452 44.1475 46.4765 44.3022Z" fill="#B6C0EB" stroke="#B6C0EB" stroke-width="0.2"/>
<path d="M94.668 44.9063C94.668 45.0609 94.8292 45.1641 95.1159 45.1641C95.4025 45.1641 95.5638 45.0609 95.5638 44.9063C95.5638 44.7516 95.4025 44.6485 95.1159 44.6485C94.8292 44.6485 94.668 44.7516 94.668 44.9063Z" fill="#B6C0EB" stroke="#B6C0EB" stroke-width="0.2"/>
<path d="M93.9531 46.2813C93.9531 46.4188 94.1144 46.5391 94.3114 46.5391C94.7414 46.5391 94.7952 46.2813 94.3831 46.1266C93.989 45.9719 93.9531 45.9891 93.9531 46.2813Z" fill="#B6C0EB" stroke="#B6C0EB" stroke-width="0.2"/>
<path d="M46.903 46.6084C46.7239 46.7459 46.6164 46.9006 46.6701 46.9522C46.7418 47.0209 48.6409 47.1068 50.9341 47.1756C53.944 47.2443 55.0727 47.2271 55.0727 47.0896C55.0727 46.6944 54.3561 46.5913 50.8446 46.471C47.8884 46.385 47.1897 46.4022 46.903 46.6084Z" fill="#B6C0EB" stroke="#B6C0EB" stroke-width="0.2"/>
<path d="M97.7155 47.4473C97.7155 47.5676 98.253 48.1691 98.8979 48.7706C100.833 50.6267 102.624 53.5311 103.323 56.0746C103.771 57.6556 104.022 60.5085 103.896 62.3302C103.664 65.3893 101.245 71.1637 99.0233 74.0337C98.468 74.7383 97.1063 76.1819 95.9776 77.2303C94.8668 78.2958 93.9531 79.241 93.9531 79.3441C93.9531 79.791 94.5444 79.4301 96.1747 77.9521C99.6325 74.8414 101.281 72.3667 103.287 67.2797C104.559 64.0659 104.828 62.4161 104.559 59.4086C104.129 54.7341 102.535 51.2969 99.4533 48.4269C98.1992 47.2582 97.7155 46.9833 97.7155 47.4473Z" fill="#B6C0EB" stroke="#B6C0EB" stroke-width="0.2"/>
<path d="M93.418 48.0167C93.418 48.1714 93.5434 48.2573 93.7225 48.2229C94.1704 48.137 94.2242 47.7417 93.7942 47.7417C93.5792 47.7417 93.418 47.8449 93.418 48.0167Z" fill="#B6C0EB" stroke="#B6C0EB" stroke-width="0.2"/>
<path fill-rule="evenodd" clip-rule="evenodd" d="M61.7786 55.1626C62.5132 53.3925 63.4986 51.1927 63.9465 50.2647C64.3944 49.3538 64.8423 48.5977 64.9498 48.5977C65.3081 48.5977 65.0573 49.457 64.1435 51.3474C61.8145 56.1079 60.9903 58.0155 60.9903 58.6342C60.9903 58.7373 61.3307 58.9263 61.7607 59.0466C62.1728 59.1669 63.1582 59.6825 63.9465 60.1637C65.7022 61.2636 69.5721 64.0477 70.665 64.9929C71.1129 65.3882 72.0445 66.1444 72.7253 66.6771C73.424 67.1927 75.3589 68.9113 77.061 70.4924C79.3721 72.6406 80.2142 73.3108 80.4471 73.2249C80.6979 73.139 80.7337 73.1734 80.6442 73.414C80.5546 73.6374 80.7875 74.0155 81.5041 74.806C82.0416 75.3903 82.4895 76.009 82.4895 76.1637C82.4895 76.3184 82.6328 76.4387 82.8478 76.4387C83.2061 76.4387 83.5645 76.9027 83.5645 77.3667C83.5645 77.7448 83.2241 77.7104 82.8837 77.2808C82.5791 76.937 82.5612 76.9542 81.9341 77.762C81.8284 77.9007 81.6709 78.1057 81.483 78.3503C81.0658 78.8933 80.4989 79.6312 80.0171 80.2711C78.8705 81.7319 78.3688 82.1443 78.3688 81.5944C78.3688 81.4225 80.9308 77.951 81.7191 77.0573C82.1312 76.5933 82.1312 76.5418 81.8445 76.2496C81.7803 76.1743 81.7104 76.1072 81.6462 76.0537L80.8764 75.2936C80.8639 75.1841 80.6722 74.9366 80.4471 74.7373L80.0171 74.342L79.97 74.3985L79.5303 73.9642L79.5871 73.8952L78.8884 73.2421C78.6475 73.011 78.4212 72.8222 78.2803 72.7298L77.7689 72.2248L77.8672 72.1078L77.3655 71.6095C77.0968 71.3345 76.8281 71.1111 76.7743 71.1111C76.7621 71.115 76.7378 71.1367 76.704 71.1731L76.2124 70.6877C76.2167 70.6716 76.2189 70.6581 76.2189 70.647C76.2189 70.5611 76.0398 70.4064 75.8248 70.269C75.5202 70.0971 75.4127 70.0799 75.3589 70.2346C75.3231 70.3549 74.6602 71.1626 73.9077 72.0391L75.1619 69.6503L74.3377 68.9285C68.9809 64.1336 63.9285 60.4559 61.7249 59.7512C60.1662 59.2357 60.1662 59.0638 61.7786 55.1626Z" fill="#B6C0EB"/>
<path d="M75.1619 69.6503L74.3377 68.9285C68.9809 64.1336 63.9285 60.4559 61.7249 59.7512C60.1662 59.2357 60.1662 59.0638 61.7786 55.1626C62.5132 53.3925 63.4986 51.1927 63.9465 50.2647C64.3944 49.3538 64.8423 48.5977 64.9498 48.5977C65.3081 48.5977 65.0573 49.457 64.1435 51.3474C61.8145 56.1079 60.9903 58.0155 60.9903 58.6342C60.9903 58.7373 61.3307 58.9263 61.7607 59.0466C62.1728 59.1669 63.1582 59.6825 63.9465 60.1637C65.7022 61.2636 69.5721 64.0477 70.665 64.9929C71.1129 65.3882 72.0445 66.1444 72.7253 66.6771C73.424 67.1927 75.3589 68.9113 77.061 70.4924C79.3721 72.6406 80.2142 73.3108 80.4471 73.2249C80.6979 73.139 80.7337 73.1734 80.6442 73.414C80.5546 73.6374 80.7875 74.0155 81.5041 74.806C82.0416 75.3903 82.4895 76.009 82.4895 76.1637C82.4895 76.3184 82.6328 76.4387 82.8478 76.4387C83.2061 76.4387 83.5645 76.9027 83.5645 77.3667C83.5645 77.7448 83.2241 77.7104 82.8837 77.2808C82.5791 76.937 82.5612 76.9542 81.9341 77.762C81.8284 77.9007 81.6709 78.1057 81.483 78.3503C81.0658 78.8933 80.4989 79.6312 80.0171 80.2711C78.8705 81.7319 78.3688 82.1443 78.3688 81.5944C78.3688 81.4225 80.9308 77.951 81.7191 77.0573C82.1312 76.5933 82.1312 76.5418 81.8445 76.2496M75.1619 69.6503L74.0332 70.9736M75.1619 69.6503L73.9077 72.0391C74.6602 71.1626 75.3231 70.3549 75.3589 70.2346C75.4127 70.0799 75.5202 70.0971 75.8248 70.269M75.1619 69.6503L75.8248 70.269M75.1619 69.6503L76.2124 70.6877M75.8248 70.269C76.0398 70.4064 76.2189 70.5611 76.2189 70.647M76.2189 70.647L77.8672 72.1078M76.2189 70.647C76.2189 70.6581 76.2167 70.6716 76.2124 70.6877M77.8672 72.1078L77.3655 71.6095C77.0968 71.3345 76.8281 71.1111 76.7743 71.1111C76.7621 71.115 76.7378 71.1367 76.704 71.1731M77.8672 72.1078L77.7689 72.2248M79.5871 73.8952L78.8884 73.2421C78.6475 73.011 78.4212 72.8222 78.2803 72.7298M79.5871 73.8952L80.8771 75.3044C80.8771 75.301 80.8768 75.2973 80.8764 75.2936M79.5871 73.8952L79.5303 73.9642M81.4325 75.9231C81.4648 75.9231 81.5491 75.9729 81.6462 76.0537M81.8445 76.2496C81.7803 76.1743 81.7104 76.1072 81.6462 76.0537M81.8445 76.2496L81.6462 76.0537M77.8252 73.0547C78.0094 72.8275 78.1225 72.6878 78.1359 72.675C78.1482 72.6572 78.1965 72.6761 78.2699 72.7231C78.2733 72.7253 78.2768 72.7275 78.2803 72.7298M76.2124 70.6877L76.704 71.1731M76.704 71.1731L77.7689 72.2248M78.2803 72.7298L77.7689 72.2248M78.2803 72.7298L79.5303 73.9642M79.5303 73.9642L79.97 74.3985M79.97 74.3985L80.0171 74.342L80.4471 74.7373C80.6722 74.9366 80.8639 75.1841 80.8764 75.2936M79.97 74.3985L80.8764 75.2936M81.6462 76.0537L80.8764 75.2936" stroke="#B6C0EB" stroke-width="0.2"/>
<path d="M97.4793 50.148C97.1389 50.6292 97.0493 50.8527 97.2106 50.9386C97.4435 51.0761 98.6617 49.8387 98.5005 49.6153C98.3034 49.3059 97.963 49.4778 97.4793 50.148Z" fill="#B6C0EB" stroke="#B6C0EB" stroke-width="0.2"/>
<path d="M98.0684 51.6475C97.6026 52.2834 97.4055 52.6787 97.513 52.7818C97.7639 53.0224 98.1043 52.7131 98.7671 51.7163C99.3942 50.7883 99.43 50.668 99.0717 50.668C98.9284 50.668 98.4805 51.1148 98.0684 51.6475Z" fill="#B6C0EB" stroke="#B6C0EB" stroke-width="0.2"/>
<path d="M39.9691 50.9569C39.6287 51.0085 39.4854 51.1288 39.5212 51.3006C39.557 51.5412 39.8795 51.5928 41.3307 51.61C42.2803 51.6271 43.1223 51.6959 43.1761 51.7474C43.3194 51.8849 41.9757 53.4145 41.707 53.4145C41.5995 53.4145 41.1874 53.0879 40.8112 52.6755C40.1483 51.988 39.4675 51.524 39.0912 51.524C38.8225 51.524 38.9837 55.408 39.2525 55.6658C39.4316 55.8377 39.4137 55.958 39.1808 56.1986C38.7508 56.6626 39.1092 56.8516 40.3812 56.8516C40.9187 56.8516 41.9757 57.0063 42.7103 57.1953C43.4448 57.3844 44.1077 57.5391 44.1615 57.5391C44.466 57.5391 44.5735 56.7485 44.5914 54.4456C44.6094 53.0708 44.681 51.8162 44.7527 51.6615C44.8602 51.4381 44.7885 51.3178 44.4839 51.1975C43.9823 51.0256 40.6858 50.8366 39.9691 50.9569ZM43.9644 54.0332C43.9644 54.944 43.8927 55.6486 43.8211 55.6143C43.6061 55.5283 42.3519 54.1706 42.3519 54.016C42.3519 53.8097 43.6061 52.3833 43.8031 52.3833C43.8927 52.3833 43.9644 53.1223 43.9644 54.0332ZM40.5066 54.9096L39.6645 55.7346V54.1019V52.4693L40.5066 53.2942L41.3666 54.1019L40.5066 54.9096ZM42.7819 55.5799C43.2657 56.0955 43.6061 56.5595 43.5702 56.5938C43.4986 56.6626 40.5424 56.1986 40.4528 56.1126C40.3633 56.0439 41.6532 54.6175 41.7965 54.6175C41.8682 54.6175 42.3161 55.0471 42.7819 55.5799Z" fill="#B6C0EB" stroke="#B6C0EB" stroke-width="0.2"/>
<path d="M98.9889 52.8509C98.1648 53.7446 97.8244 54.4492 98.2185 54.4492C98.5768 54.4492 100.458 52.2666 100.297 52.026C100.118 51.7339 99.8847 51.8713 98.9889 52.8509Z" fill="#B6C0EB" stroke="#B6C0EB" stroke-width="0.2"/>
<path d="M56.4181 53.2895C56.0777 53.891 55.7911 54.4925 55.7911 54.6128C55.7911 54.7675 55.5761 54.8019 55.0386 54.7331C54.6086 54.6644 52.5662 54.5785 50.488 54.5097C47.6393 54.4238 46.6719 54.441 46.5644 54.5957C46.4927 54.716 46.4748 54.8363 46.5106 54.8706C46.5464 54.9222 53.6053 55.3346 55.0386 55.369C55.3611 55.3862 55.4328 55.4549 55.3432 55.7299C55.1999 56.2283 54.752 58.5312 54.6265 59.4249C54.5191 60.1639 54.4653 60.2326 53.2649 60.9372C52.1183 61.6246 51.8496 61.9512 52.1362 62.2261C52.2079 62.2949 52.7095 62.0371 53.2649 61.659C54.4474 60.8685 54.5907 60.8341 54.5011 61.3497C54.4653 61.6075 54.0174 61.9855 53.0141 62.5527C52.2258 63.0167 51.5629 63.4979 51.5271 63.6354C51.4375 64.0478 51.7958 63.9447 53.1037 63.2057C53.7845 62.8277 54.3757 62.5183 54.4295 62.5183C54.4832 62.5183 54.537 62.7417 54.537 63.0167C54.537 63.4463 54.3578 63.6182 53.1037 64.3744C52.3154 64.8556 51.6704 65.3368 51.6704 65.4227C51.6704 65.8352 52.0466 65.7149 53.1933 64.9931C53.8741 64.5806 54.4832 64.2884 54.5549 64.3572C54.6086 64.4431 54.7161 64.7009 54.7878 64.9587C54.8774 65.3711 54.8057 65.4571 54.0891 65.8008C53.0858 66.282 51.9929 67.1413 52.1183 67.3475C52.2975 67.5881 52.4229 67.5366 53.6233 66.7976C54.5191 66.2476 54.7878 66.1445 54.9132 66.3164C55.2357 66.8148 55.0924 67.2444 54.5011 67.4678C53.4262 67.8459 52.0287 68.7739 52.0287 69.0833C52.0287 69.2551 52.0825 69.3926 52.1541 69.3926C52.3333 69.3926 53.8203 68.5505 54.5011 68.0693C55.1103 67.6225 55.4328 67.674 55.4328 68.1896C55.4328 68.3615 55.6298 69.1348 55.8807 69.9082C56.3286 71.2487 56.3286 71.3003 56.024 71.7127C55.8448 71.9361 55.6119 72.1424 55.5223 72.1424C55.1461 72.1424 52.2437 71.7815 50.8642 71.5409C50.0759 71.4034 47.1735 71.1799 44.4144 71.0253C41.6554 70.8706 38.4126 70.6816 37.1943 70.5784C34.2382 70.3722 33.9336 70.3722 33.9336 70.6644C33.9336 71.0081 34.9906 71.1284 40.7417 71.4549C48.6426 71.9018 49.8967 72.0049 51.2583 72.2455C52.0466 72.383 53.6949 72.5892 54.9132 72.7095L57.099 72.9157L57.9231 74.3421C58.371 75.1327 59.1414 76.2498 59.643 76.8684C60.8255 78.3121 62.9575 79.8072 62.9575 79.1885C62.9575 78.9823 62.42 78.4667 61.4705 77.7621C60.1626 76.8169 57.9768 73.4313 57.0631 70.9393C55.1282 65.6633 54.7878 60.8857 55.9702 56.1596C56.2748 54.905 57.1169 52.9802 57.4214 52.7911C57.6723 52.6365 57.6006 52.2068 57.3139 52.2068C57.1885 52.2068 56.7765 52.7052 56.4181 53.2895Z" fill="#B6C0EB" stroke="#B6C0EB" stroke-width="0.2"/>
<path d="M46.4727 52.983C46.4727 53.1204 46.5802 53.2923 46.7056 53.3267C46.8131 53.3611 48.5509 53.4298 50.5575 53.4642C53.1195 53.4985 54.284 53.4642 54.4811 53.3267C54.6782 53.1892 54.6961 53.0861 54.5707 53.0001C54.4632 52.9314 52.5999 52.8455 50.4142 52.7939C46.8668 52.708 46.4727 52.7252 46.4727 52.983Z" fill="#B6C0EB" stroke="#B6C0EB" stroke-width="0.2"/>
<path d="M99.5259 54.5142C98.6838 55.3391 98.4688 55.8203 98.9705 55.8203C99.2213 55.8203 100.762 54.2736 100.762 54.0158C100.762 53.5002 100.422 53.6377 99.5259 54.5142Z" fill="#B6C0EB" stroke="#B6C0EB" stroke-width="0.2"/>
<path d="M99.7909 55.8337C99.2534 56.4352 99.1996 56.6758 99.6117 56.6758C99.8804 56.6758 100.937 55.6962 100.937 55.4384C100.937 55.0947 100.203 55.3525 99.7909 55.8337Z" fill="#B6C0EB" stroke="#B6C0EB" stroke-width="0.2"/>
<path d="M46.7408 56.1456C45.7912 56.3347 46.1675 56.5925 47.547 56.7128C48.2815 56.7815 49.6969 56.919 50.6644 57.0221C52.1693 57.1768 52.4918 57.1596 52.7247 56.9534C53.0293 56.644 52.9397 56.6097 50.2344 56.3347C47.4037 56.0425 47.3141 56.0425 46.7408 56.1456Z" fill="#B6C0EB" stroke="#B6C0EB" stroke-width="0.2"/>
<path d="M63.1543 57.0369C62.7601 57.9477 62.6526 58.7383 62.9393 58.7383C63.011 58.7383 63.2439 58.2915 63.4409 57.7415C63.638 57.2087 63.8709 56.6244 63.9426 56.4526C64.0322 56.2463 63.9963 56.1604 63.7993 56.1604C63.6559 56.1604 63.3693 56.5385 63.1543 57.0369Z" fill="#B6C0EB" stroke="#B6C0EB" stroke-width="0.2"/>
<path d="M100.884 56.4735C100.561 56.8172 100.472 57.3672 100.741 57.3672C100.938 57.3672 101.654 56.5423 101.654 56.3189C101.654 56.0611 101.188 56.147 100.884 56.4735Z" fill="#B6C0EB" stroke="#B6C0EB" stroke-width="0.2"/>
<path d="M64.298 57.5881C64.1547 57.8115 63.9755 58.2239 63.9218 58.5333C63.7426 59.3754 64.1547 59.2207 64.6026 58.2583C64.8176 57.8115 65.0326 57.399 65.0684 57.3131C65.2297 57.0037 64.5489 57.2443 64.298 57.5881Z" fill="#B6C0EB" stroke="#B6C0EB" stroke-width="0.2"/>
<path d="M101.156 57.758C100.887 58.033 100.833 58.2048 100.959 58.3939C101.102 58.6173 101.174 58.5829 101.478 58.2392C102.141 57.483 101.855 57.0362 101.156 57.758Z" fill="#B6C0EB" stroke="#B6C0EB" stroke-width="0.2"/>
<path d="M65.4099 58.7251C65.0516 59.3266 65.0158 59.6016 65.3382 59.6016C65.5353 59.6016 66.1803 58.6048 66.1803 58.3126C66.1803 58.0377 65.6607 58.3126 65.4099 58.7251Z" fill="#B6C0EB" stroke="#B6C0EB" stroke-width="0.2"/>
<path d="M66.4719 59.2923C66.1315 59.7563 66.0957 60.2891 66.4182 60.2891C66.5973 60.2891 67.0273 59.5157 67.099 59.0861C67.1348 58.8283 66.7048 58.9658 66.4719 59.2923Z" fill="#B6C0EB" stroke="#B6C0EB" stroke-width="0.2"/>
<path d="M67.5424 60.391C67.2557 61.0956 67.7932 61.2331 68.1157 60.5457C68.2948 60.1676 68.2769 60.1161 67.9902 60.1161C67.8111 60.1161 67.5961 60.2364 67.5424 60.391Z" fill="#B6C0EB" stroke="#B6C0EB" stroke-width="0.2"/>
<path d="M68.9959 61.286C68.6555 61.6469 68.6017 62.0078 68.8884 62.0078C69.1392 62.0078 69.7663 61.2688 69.6409 61.1142C69.5155 60.8907 69.3005 60.9595 68.9959 61.286Z" fill="#B6C0EB" stroke="#B6C0EB" stroke-width="0.2"/>
<path d="M70.0183 62.4362C69.9466 62.5736 69.9645 62.8314 70.0362 62.9861C70.1437 63.2783 70.1616 63.2783 70.4124 62.9689C70.5558 62.7799 70.6633 62.5221 70.6633 62.4018C70.6633 62.0924 70.1437 62.1268 70.0183 62.4362Z" fill="#B6C0EB" stroke="#B6C0EB" stroke-width="0.2"/>
<path d="M70.9154 63.297C70.6467 63.675 70.6825 64.0703 70.9871 64.0703C71.1304 64.0703 71.7396 63.1595 71.7396 62.9704C71.7396 62.6954 71.1842 62.9189 70.9154 63.297Z" fill="#B6C0EB" stroke="#B6C0EB" stroke-width="0.2"/>
<path d="M72.1623 64.8179C72.0906 64.9898 72.1265 65.196 72.2339 65.2991C72.3773 65.4366 72.4669 65.4194 72.5564 65.196C72.6281 65.0242 72.5923 64.8179 72.4848 64.7148C72.3414 64.5773 72.2519 64.5945 72.1623 64.8179Z" fill="#B6C0EB" stroke="#B6C0EB" stroke-width="0.2"/>
<path d="M58.2969 64.8926C58.2969 65.1332 58.494 65.2535 58.7627 65.1504C59.1389 65.0129 59.0673 64.7552 58.6552 64.7552C58.4581 64.7552 58.2969 64.8239 58.2969 64.8926Z" fill="#B6C0EB" stroke="#B6C0EB" stroke-width="0.2"/>
<path d="M36.2119 66.0776C36.1581 66.1636 36.0686 66.851 35.9969 67.6244C35.8894 68.8102 35.9073 69.0508 36.1402 69.0508C36.3194 69.0508 36.4269 68.7414 36.4985 67.8821C36.6598 66.3182 36.6598 65.9573 36.4627 65.9573C36.3552 65.9573 36.2477 66.0089 36.2119 66.0776Z" fill="#B6C0EB" stroke="#B6C0EB" stroke-width="0.2"/>
<path d="M58.8931 66.0752C58.7677 66.1095 58.6602 66.2298 58.6602 66.333C58.6602 66.5736 59.4305 66.4361 59.5201 66.1611C59.5918 65.9549 59.3051 65.9033 58.8931 66.0752Z" fill="#B6C0EB" stroke="#B6C0EB" stroke-width="0.2"/>
<path d="M37.2637 67.4392C37.21 67.5939 37.1562 68.1266 37.1562 68.6594C37.1562 69.3296 37.2279 69.5702 37.3892 69.5359C37.6221 69.4499 37.9625 67.8001 37.8012 67.4048C37.6758 67.0783 37.4071 67.0955 37.2637 67.4392Z" fill="#B6C0EB" stroke="#B6C0EB" stroke-width="0.2"/>
<path d="M38.8949 67.6244C38.8233 67.6759 38.7695 68.0712 38.7695 68.4837C38.7695 69.0336 38.8412 69.2227 39.0383 69.2227C39.2353 69.2227 39.307 69.0164 39.307 68.3634C39.307 67.5728 39.1816 67.3322 38.8949 67.6244Z" fill="#B6C0EB" stroke="#B6C0EB" stroke-width="0.2"/>
<path d="M58.9313 67.6745C58.788 67.8979 59.2897 68.087 59.648 67.9495C59.7913 67.8979 59.9167 67.7776 59.9167 67.6745C59.9167 67.4511 59.0747 67.4511 58.9313 67.6745Z" fill="#B6C0EB" stroke="#B6C0EB" stroke-width="0.2"/>
<path d="M40.0999 68.0921C39.9386 68.4873 40.0999 69.4497 40.3507 69.5357C40.494 69.57 40.5657 69.3466 40.5657 68.7279C40.5657 67.903 40.3149 67.5593 40.0999 68.0921Z" fill="#B6C0EB" stroke="#B6C0EB" stroke-width="0.2"/>
<path d="M41.7268 68.1955C41.5655 68.6595 41.8163 69.7765 42.0672 69.6906C42.3538 69.6047 42.3717 67.8517 42.0672 67.8517C41.9417 67.8517 41.7984 68.0064 41.7268 68.1955Z" fill="#B6C0EB" stroke="#B6C0EB" stroke-width="0.2"/>
<path d="M43.6782 68.4497C43.5528 68.9481 43.7319 69.5324 43.9469 69.2918C44.0365 69.2059 44.144 68.8793 44.1978 68.57C44.2873 68.1575 44.2515 68.02 44.0544 68.02C43.9111 68.02 43.7499 68.2091 43.6782 68.4497Z" fill="#B6C0EB" stroke="#B6C0EB" stroke-width="0.2"/>
<path d="M45.7738 68.7759C45.523 69.0508 45.7021 69.5664 46.0425 69.5664C46.1858 69.5664 46.2933 69.3945 46.2933 69.1539C46.2933 68.6384 46.0425 68.4493 45.7738 68.7759Z" fill="#B6C0EB" stroke="#B6C0EB" stroke-width="0.2"/>
<path d="M59.5164 68.8274C59.1402 68.9133 59.0864 69.3945 59.4448 69.3945C59.8927 69.3945 60.2689 69.1883 60.2689 68.9477C60.2689 68.7071 60.0897 68.6727 59.5164 68.8274Z" fill="#B6C0EB" stroke="#B6C0EB" stroke-width="0.2"/>
<path d="M48.5693 69.0032C48.3364 69.2266 48.4439 69.9141 48.7126 69.9141C48.8918 69.9141 48.9814 69.7422 48.9814 69.3985C48.9814 68.9001 48.8201 68.7454 48.5693 69.0032Z" fill="#B6C0EB" stroke="#B6C0EB" stroke-width="0.2"/>
<path d="M53.6618 69.5665C53.1423 69.8415 52.5869 70.168 52.4615 70.2712C52.1569 70.5118 52.139 70.9414 52.4077 70.9414C52.7123 70.9414 55.2563 69.3775 55.2563 69.2056C55.2563 68.9135 54.6293 69.051 53.6618 69.5665Z" fill="#B6C0EB" stroke="#B6C0EB" stroke-width="0.2"/>
<path d="M50.2933 69.6714C50.1499 70.0323 50.5262 70.3932 50.7949 70.1354C51.0278 69.912 50.8845 69.3964 50.5978 69.3964C50.4903 69.3964 50.3649 69.5167 50.2933 69.6714Z" fill="#B6C0EB" stroke="#B6C0EB" stroke-width="0.2"/>
<path d="M54.5902 70.5972C54.0169 70.9237 53.8915 71.1128 54.1065 71.3362C54.1961 71.4221 55.1815 71.0096 55.7906 70.6316C55.8623 70.58 55.4144 70.2535 55.2531 70.2535C55.1994 70.2535 54.8948 70.4081 54.5902 70.5972Z" fill="#B6C0EB" stroke="#B6C0EB" stroke-width="0.2"/>
<path d="M60.4146 70.6282C59.9488 70.9376 59.7338 71.4531 60.0563 71.4531C60.3071 71.4531 61.0238 70.6282 60.97 70.4392C60.9342 70.3532 60.6834 70.422 60.4146 70.6282Z" fill="#B6C0EB" stroke="#B6C0EB" stroke-width="0.2"/>
<path d="M67.7757 72.2855C65.6795 74.3134 64.0312 76.2038 64.0312 76.5819C64.0312 76.9772 64.3896 76.771 65.0525 75.9804C65.4287 75.5336 66.7186 74.1931 67.9369 72.9901C69.8181 71.1168 70.4989 70.2232 69.9973 70.2747C69.9077 70.2747 68.9223 71.1856 67.7757 72.2855Z" fill="#B6C0EB" stroke="#B6C0EB" stroke-width="0.2"/>
<path d="M61.5221 72.2649C60.9847 72.454 60.5905 73.1758 61.0384 73.1758C61.2534 73.1758 62.2388 72.3852 62.2388 72.2306C62.2388 72.1274 61.8805 72.1446 61.5221 72.2649Z" fill="#B6C0EB" stroke="#B6C0EB" stroke-width="0.2"/>
<path d="M64.0709 74.1213C62.9959 75.3758 62.7809 75.7539 63.1213 75.7539C63.408 75.7539 65.4683 73.451 65.4683 73.1417C65.4683 72.6261 65.2354 72.7808 64.0709 74.1213Z" fill="#B6C0EB" stroke="#B6C0EB" stroke-width="0.2"/>
<path d="M62.0613 73.6214C61.5597 74.0854 61.488 74.2401 61.6672 74.4119C61.8643 74.601 62.0255 74.5151 62.5272 73.9995C63.5663 72.9168 63.1721 72.5903 62.0613 73.6214Z" fill="#B6C0EB" stroke="#B6C0EB" stroke-width="0.2"/>
<path d="M95.6939 75.7235C94.9952 76.411 94.8519 76.7891 95.2819 76.7891C95.5327 76.7891 96.8227 75.4314 96.8227 75.1736C96.8227 74.8814 96.2852 75.1392 95.6939 75.7235Z" fill="#B6C0EB" stroke="#B6C0EB" stroke-width="0.2"/>
<path d="M81.9134 79.2948C81.1968 80.1025 80.5339 80.8759 80.4622 81.0133C80.301 81.2711 80.4264 81.5977 80.6951 81.5977C80.9101 81.5977 83.5617 78.3152 83.5617 78.0402C83.5617 77.5762 83.1855 77.8512 81.9134 79.2948Z" fill="#B6C0EB" stroke="#B6C0EB" stroke-width="0.2"/>
<path d="M92.1456 78.586C91.4469 79.0156 91.1781 79.4452 91.4648 79.6343C91.6619 79.7374 93.0593 78.5516 93.0593 78.2938C93.0593 78.0704 92.8443 78.1391 92.1456 78.586Z" fill="#B6C0EB" stroke="#B6C0EB" stroke-width="0.2"/>
<path d="M66.0078 80.5487C66.0078 80.7893 66.9215 81.3736 68.0144 81.8548C69.0894 82.3188 73.7833 83.5218 76.4887 84.0202C77.474 84.2093 79.4448 84.3983 80.8781 84.4499C83.3863 84.553 83.5476 84.5358 85.6258 84.0202C87.9011 83.4359 91.4127 82.0438 91.5739 81.6486C91.771 81.1502 91.3768 81.2189 89.1732 82.0782C85.5362 83.4875 84.4254 83.7281 81.5947 83.7109C78.9073 83.7109 76.3274 83.3671 73.0846 82.611C70.1822 81.9235 68.2294 81.3049 67.3157 80.8065C66.5453 80.3768 66.0078 80.2737 66.0078 80.5487Z" fill="#B6C0EB" stroke="#B6C0EB" stroke-width="0.2"/>
<path d="M88.6666 80.7407C88.147 81.2906 88.577 81.5141 89.1682 80.9813C89.437 80.7579 89.6519 80.5173 89.6519 80.4829C89.6519 80.2595 88.9532 80.4485 88.6666 80.7407Z" fill="#B6C0EB" stroke="#B6C0EB" stroke-width="0.2"/>
<path d="M79.9759 82.2143C79.6176 82.5065 79.4743 82.7299 79.5818 82.833C79.8147 83.0564 80.388 82.7471 80.7642 82.1972C81.1763 81.5956 80.7284 81.6128 79.9759 82.2143Z" fill="#B6C0EB" stroke="#B6C0EB" stroke-width="0.2"/>
</svg>
